<mxfile host="Electron" agent="Mozilla/5.0 (Windows NT 10.0; Win64; x64) AppleWebKit/537.36 (KHTML, like Gecko) draw.io/27.0.9 Chrome/134.0.6998.205 Electron/35.4.0 Safari/537.36" version="27.0.9">
  <diagram name="PÃ¡gina-1" id="TVFzH8WlMBZMEleLMiaH">
    <mxGraphModel dx="1185" dy="1864" grid="1" gridSize="10" guides="1" tooltips="1" connect="1" arrows="1" fold="1" page="1" pageScale="1" pageWidth="827" pageHeight="1169" math="0" shadow="0">
      <root>
        <mxCell id="0" />
        <mxCell id="1" parent="0" />
        <mxCell id="jZaG6iODxlWzr7X083be-1" value="cliente" style="whiteSpace=wrap;html=1;align=center;fillColor=#f0a30a;strokeColor=#BD7000;fontColor=#000000;" vertex="1" parent="1">
          <mxGeometry x="660" y="370" width="100" height="40" as="geometry" />
        </mxCell>
        <mxCell id="jZaG6iODxlWzr7X083be-2" value="cuenta" style="whiteSpace=wrap;html=1;align=center;fillColor=#f0a30a;strokeColor=#BD7000;fontColor=#000000;" vertex="1" parent="1">
          <mxGeometry x="934" y="370" width="100" height="40" as="geometry" />
        </mxCell>
        <mxCell id="jZaG6iODxlWzr7X083be-3" value="sucursal" style="whiteSpace=wrap;html=1;align=center;fillColor=#f0a30a;strokeColor=#BD7000;fontColor=#000000;" vertex="1" parent="1">
          <mxGeometry x="1240" y="370" width="100" height="40" as="geometry" />
        </mxCell>
        <mxCell id="jZaG6iODxlWzr7X083be-4" value="tiene" style="shape=rhombus;perimeter=rhombusPerimeter;whiteSpace=wrap;html=1;align=center;fillColor=#76608a;fontColor=#ffffff;strokeColor=#432D57;" vertex="1" parent="1">
          <mxGeometry x="800" y="370" width="90" height="40" as="geometry" />
        </mxCell>
        <mxCell id="jZaG6iODxlWzr7X083be-5" value="" style="endArrow=none;html=1;rounded=0;exitX=0;exitY=0.5;exitDx=0;exitDy=0;" edge="1" parent="1" source="jZaG6iODxlWzr7X083be-4" target="jZaG6iODxlWzr7X083be-1">
          <mxGeometry relative="1" as="geometry">
            <mxPoint x="777" y="360" as="sourcePoint" />
            <mxPoint x="730" y="390" as="targetPoint" />
          </mxGeometry>
        </mxCell>
        <mxCell id="jZaG6iODxlWzr7X083be-6" value="(1,M)" style="resizable=0;html=1;whiteSpace=wrap;align=right;verticalAlign=bottom;" connectable="0" vertex="1" parent="jZaG6iODxlWzr7X083be-5">
          <mxGeometry x="1" relative="1" as="geometry">
            <mxPoint x="34" as="offset" />
          </mxGeometry>
        </mxCell>
        <mxCell id="jZaG6iODxlWzr7X083be-7" value="" style="endArrow=none;html=1;rounded=0;exitX=1;exitY=0.5;exitDx=0;exitDy=0;" edge="1" parent="1" source="jZaG6iODxlWzr7X083be-4" target="jZaG6iODxlWzr7X083be-2">
          <mxGeometry relative="1" as="geometry">
            <mxPoint x="777" y="360" as="sourcePoint" />
            <mxPoint x="950" y="390" as="targetPoint" />
          </mxGeometry>
        </mxCell>
        <mxCell id="jZaG6iODxlWzr7X083be-8" value="(1,N)" style="resizable=0;html=1;whiteSpace=wrap;align=right;verticalAlign=bottom;" connectable="0" vertex="1" parent="jZaG6iODxlWzr7X083be-7">
          <mxGeometry x="1" relative="1" as="geometry">
            <mxPoint as="offset" />
          </mxGeometry>
        </mxCell>
        <mxCell id="jZaG6iODxlWzr7X083be-9" value="esta" style="shape=rhombus;perimeter=rhombusPerimeter;whiteSpace=wrap;html=1;align=center;fillColor=#76608a;fontColor=#ffffff;strokeColor=#432D57;" vertex="1" parent="1">
          <mxGeometry x="1100" y="370" width="90" height="40" as="geometry" />
        </mxCell>
        <mxCell id="jZaG6iODxlWzr7X083be-10" value="" style="endArrow=none;html=1;rounded=0;exitX=0;exitY=0.5;exitDx=0;exitDy=0;" edge="1" parent="1" source="jZaG6iODxlWzr7X083be-9" target="jZaG6iODxlWzr7X083be-2">
          <mxGeometry relative="1" as="geometry">
            <mxPoint x="1077" y="360" as="sourcePoint" />
            <mxPoint x="1030" y="390" as="targetPoint" />
          </mxGeometry>
        </mxCell>
        <mxCell id="jZaG6iODxlWzr7X083be-11" value="(1,N)" style="resizable=0;html=1;whiteSpace=wrap;align=right;verticalAlign=bottom;" connectable="0" vertex="1" parent="jZaG6iODxlWzr7X083be-10">
          <mxGeometry x="1" relative="1" as="geometry">
            <mxPoint x="34" as="offset" />
          </mxGeometry>
        </mxCell>
        <mxCell id="jZaG6iODxlWzr7X083be-12" value="" style="endArrow=none;html=1;rounded=0;exitX=1;exitY=0.5;exitDx=0;exitDy=0;" edge="1" parent="1" source="jZaG6iODxlWzr7X083be-9" target="jZaG6iODxlWzr7X083be-3">
          <mxGeometry relative="1" as="geometry">
            <mxPoint x="1077" y="360" as="sourcePoint" />
            <mxPoint x="1250" y="390" as="targetPoint" />
          </mxGeometry>
        </mxCell>
        <mxCell id="jZaG6iODxlWzr7X083be-13" value="(1,1)" style="resizable=0;html=1;whiteSpace=wrap;align=right;verticalAlign=bottom;" connectable="0" vertex="1" parent="jZaG6iODxlWzr7X083be-12">
          <mxGeometry x="1" relative="1" as="geometry">
            <mxPoint as="offset" />
          </mxGeometry>
        </mxCell>
        <mxCell id="jZaG6iODxlWzr7X083be-14" value="" style="endArrow=none;html=1;rounded=0;" edge="1" parent="1" source="jZaG6iODxlWzr7X083be-1" target="jZaG6iODxlWzr7X083be-15">
          <mxGeometry relative="1" as="geometry">
            <mxPoint x="660" y="315" as="sourcePoint" />
            <mxPoint x="720" y="315" as="targetPoint" />
          </mxGeometry>
        </mxCell>
        <mxCell id="jZaG6iODxlWzr7X083be-15" value="&lt;u&gt;codigocliente&lt;/u&gt;" style="ellipse;whiteSpace=wrap;html=1;align=center;" vertex="1" parent="1">
          <mxGeometry x="670" y="300" width="75" height="30" as="geometry" />
        </mxCell>
        <mxCell id="jZaG6iODxlWzr7X083be-16" value="" style="endArrow=none;html=1;rounded=0;" edge="1" parent="1" source="jZaG6iODxlWzr7X083be-2">
          <mxGeometry relative="1" as="geometry">
            <mxPoint x="934" y="305" as="sourcePoint" />
            <mxPoint x="984" y="320" as="targetPoint" />
          </mxGeometry>
        </mxCell>
        <mxCell id="jZaG6iODxlWzr7X083be-17" value="" style="endArrow=none;html=1;rounded=0;" edge="1" parent="1" source="jZaG6iODxlWzr7X083be-3" target="jZaG6iODxlWzr7X083be-18">
          <mxGeometry relative="1" as="geometry">
            <mxPoint x="1247.5" y="315" as="sourcePoint" />
            <mxPoint x="1307.5" y="315" as="targetPoint" />
          </mxGeometry>
        </mxCell>
        <mxCell id="jZaG6iODxlWzr7X083be-18" value="&lt;u&gt;codigosucursal&lt;/u&gt;" style="ellipse;whiteSpace=wrap;html=1;align=center;" vertex="1" parent="1">
          <mxGeometry x="1247.5" y="300" width="85" height="30" as="geometry" />
        </mxCell>
        <mxCell id="jZaG6iODxlWzr7X083be-19" value="hace" style="shape=rhombus;perimeter=rhombusPerimeter;whiteSpace=wrap;html=1;align=center;fillColor=#76608a;fontColor=#ffffff;strokeColor=#432D57;" vertex="1" parent="1">
          <mxGeometry x="944" y="525" width="90" height="40" as="geometry" />
        </mxCell>
        <mxCell id="jZaG6iODxlWzr7X083be-20" value="" style="endArrow=none;html=1;rounded=0;exitX=0;exitY=0.5;exitDx=0;exitDy=0;entryX=1;entryY=0.5;entryDx=0;entryDy=0;" edge="1" parent="1" source="jZaG6iODxlWzr7X083be-19">
          <mxGeometry relative="1" as="geometry">
            <mxPoint x="921" y="515" as="sourcePoint" />
            <mxPoint x="840" y="545" as="targetPoint" />
          </mxGeometry>
        </mxCell>
        <mxCell id="jZaG6iODxlWzr7X083be-21" value="(1,N)" style="resizable=0;html=1;whiteSpace=wrap;align=right;verticalAlign=bottom;" connectable="0" vertex="1" parent="jZaG6iODxlWzr7X083be-20">
          <mxGeometry x="1" relative="1" as="geometry">
            <mxPoint x="34" as="offset" />
          </mxGeometry>
        </mxCell>
        <mxCell id="jZaG6iODxlWzr7X083be-22" value="" style="endArrow=none;html=1;rounded=0;exitX=1;exitY=0.5;exitDx=0;exitDy=0;" edge="1" parent="1" source="jZaG6iODxlWzr7X083be-19" target="jZaG6iODxlWzr7X083be-2">
          <mxGeometry relative="1" as="geometry">
            <mxPoint x="921" y="515" as="sourcePoint" />
            <mxPoint x="1094" y="545" as="targetPoint" />
            <Array as="points">
              <mxPoint x="1120" y="540" />
              <mxPoint x="1120" y="470" />
              <mxPoint x="984" y="470" />
            </Array>
          </mxGeometry>
        </mxCell>
        <mxCell id="jZaG6iODxlWzr7X083be-23" value="(1,N)" style="resizable=0;html=1;whiteSpace=wrap;align=right;verticalAlign=bottom;" connectable="0" vertex="1" parent="jZaG6iODxlWzr7X083be-22">
          <mxGeometry x="1" relative="1" as="geometry">
            <mxPoint x="-14" y="30" as="offset" />
          </mxGeometry>
        </mxCell>
        <mxCell id="jZaG6iODxlWzr7X083be-24" value="transaccion" style="shape=ext;margin=3;double=1;whiteSpace=wrap;html=1;align=center;fillColor=#f0a30a;fontColor=#000000;strokeColor=#BD7000;" vertex="1" parent="1">
          <mxGeometry x="745" y="525" width="100" height="40" as="geometry" />
        </mxCell>
        <mxCell id="jZaG6iODxlWzr7X083be-25" value="" style="endArrow=none;html=1;rounded=0;" edge="1" parent="1" source="jZaG6iODxlWzr7X083be-24" target="jZaG6iODxlWzr7X083be-26">
          <mxGeometry relative="1" as="geometry">
            <mxPoint x="745" y="635" as="sourcePoint" />
            <mxPoint x="805" y="635" as="targetPoint" />
          </mxGeometry>
        </mxCell>
        <mxCell id="jZaG6iODxlWzr7X083be-26" value="&lt;u&gt;codigotransaccion&lt;/u&gt;" style="ellipse;whiteSpace=wrap;html=1;align=center;" vertex="1" parent="1">
          <mxGeometry x="740" y="620" width="110" height="30" as="geometry" />
        </mxCell>
        <mxCell id="jZaG6iODxlWzr7X083be-27" value="&lt;u&gt;codigocuenta&lt;/u&gt;" style="ellipse;whiteSpace=wrap;html=1;align=center;" vertex="1" parent="1">
          <mxGeometry x="943.5" y="290" width="81" height="30" as="geometry" />
        </mxCell>
        <mxCell id="jZaG6iODxlWzr7X083be-28" value="" style="shape=image;verticalLabelPosition=bottom;labelBackgroundColor=default;verticalAlign=top;aspect=fixed;imageAspect=0;image=data:image/png,iVBORw0KGgoAAAANSUhEUgAAAtkAAAD8CAYAAACis7gyAAAAAXNSR0IArs4c6QAAAARnQU1BAACxjwv8YQUAAAAJcEhZcwAADsMAAA7DAcdvqGQAALfxSURBVHhe7N13WFTX1gfg3xSaCIJdiYqKYzQ2AjH2GuUaa4piMCrGmoKaqInlxlhD1GtMNIliImpskRvjtYJRAygi2ECaYBAp0oUZFJAy56zvj6EOU0DRJH7rfZ4893rqPmuvvc/mzD4zEiIiMMYYY4wxxuqNVHsBY4wxxhhj7MnwIJsxxhhjjLF6xoNsxhhjjDHG6hkPshljjDHGGKtnPMhmjDHGGGOsnvEgmzHGGGOMsXrGg2zGGGOMMcbqmaTa92SrU3H15Akc2nsQV7IEkLQJXuzTFc0kpcjPuoOY+PtQt3PDjr0foKscQGEQvnjtLXyT2hcbzhzBvBdl1Q5eb8QU/DLzNbx/vAHc95/HllGNtbeoQkTKLzPx2vvH0cB9P85vGQVDW+sjpPhi3cffIdauI4Tb6ei24Gus+FcbaK6wGHeOrsWnO2+jRdsCXLluhtc//w/+Pb4DTLUPpFMh4s4exKGDPjj35yNYNFegS4fGkBdmIyPfGi+NnIJZk19FC7n2fowxxhhj7B+Baigif48OJAMIZqPox9zy5Y/ozn9nUrden1FIcdminF/ItZmUJCYv0uKg8oVPQelNWvOKBUkk1jTy+7uk1l5fTSndXPMKWUgkZD3ye7preGPdisNo7asNybTfBvpTXUpXl3cnk4Z9aO0NzTU+OL+AXjSVU6eFF6hYuEfbXRqS1KwLzT+r1D6SQQVHp1FzmQ25+hSULVFT1qWN9K9WZtTmLW+Kf5yyM8YYY4yxv5yO6SISmJjIIam2rBiZGYWwf/NLfDbKunJdY1d4X7+OS+GB8Oxfu2e4j0XeAyvOhCE4NAy/fmBf9jRZHzl6rDiDsOBQhP36AewNb6xT4bnvseNaAeQtX0BrmRwd7F+ANP8qdnx/FoVQ4vj3exFXIkHTlq0gk7ZA/74KyIpj8dP6PUgQtI+mn7yxDayqBVqGZv0+wbcLXkbGsa/wQ0hJ1ZWMMcYYY+wfQscgW4eSq9i37wZKpc0x3mMGusgBiHmIC/JDYFQ6VMmx+DNXrLLDQ9w6vRNfrd2AnadikAcAKERi6Bn4+vrC1y8Q0TkCCuJO4jvP73EuuXxkmoc4v13YuPoLrNt2BGE5IgABadfP4ExIApT3/8St5OLK0+TFwW/XRqz+Yh22HQlDjggIaddx5kwIEpT38eetZFRuLSLn5v+w3XM11mzyhl/cQ1QtcaUShJ2/gEwBMDXV/OFgaioHICDz4h8IK7yHPxMLQAAEoRSAHPb2L0AmITy6GoCLDzVHEbNDsHfDBuwNydZzHn0ksLQwh0R8iDxV1T3VyLkdCv/zAbiaoEK1sXxBMiLjciCiBJnRwQiOyYK66noAKMlC7OUABITGQ6n9h4CgRMK1i7gQEossHtczxhhjjD0x44NsEpB5Yhd+S9AM26xatYKVFIC0Edo1i8SGN0fj9TEzsD2iVLO9kASfmb0xaH06hrn3xq3P+mPg/FPIEhugpW0UNr01Gq+PmYqv92/CuIETMH/5x1j0YwQgpuK3Of3Qf1UyBrxpi4Blk9BvwMc4mydDi7b5+GX2WLz++jgsO54DEYCY+hvm9OuPVckD8KZtAJZN6ocBH59Ffou2yP9lNsa+/jrGLTuOHBEA1Li92xVOfRcixMEdMzoH46OXu+Ntr+gqg/Byhbh9OxkCJJDJZZACkEg0YRJS4hFf3BTNm8gggYjMe2lQA5BZWMAMAJWqoHwgAiiG/xeumLl0KWZO/Bzna55EL3XKKaz/8TKkL06G2yBzzUIhAfun98Fb397E/YxgeLooMGD1ZRSK2biydyGGOigwyvMQds1xwWi3qRjdqzsmeMWXDcRFZAesxzT3/+BcUhYito2DwtkDx9I1A3hVyDdwd10Kn8hkxB1fhIFdXbDGv65/GDDGGGOMsaoMD7KFP/HfhaPQf9p+VDxsrsK8TRs0q/Zynojs/34Kjz0JeGmiO5zb9MWIPhaI8VqDH28JMG/bES80kADifZy/0BAbzvyMBW+8iXdcHKA6vgLzvf9EhzGueLXrvzCylxmKE0JwNU2AzFaBDi2rFlWF4yvmw/vPDhjj+iq6/mskepkVIyHkKtJgC0WHltUuTMw4iKVLfkOy6asY/Xo7tBk5Bv0apOB/ny3B3hSt4aSYB9UDEQRAItHM5Sj7H5DwEA8Km2GC+zi0kolI9T+J0HxAePQIxQAkpo3RpJEUgBwO/QejY6NG6DhkADoZfIGxAEHfvIeZs2dh2vg+6NjlDezO/xf+c3AdhllpthD+PIzvfgWGvf8eJk75FMsmtkD4//xwW2yG3u/Ox+iOhIfR8Wix7Ayu3byBnyYB5/b/D0kCIGYchsfsi+jz1Vf4aPIkfLDsPbyU/BuOhj4CVL5YOn0nbOd/i6UzpmD2l/+F94QUrJ8yH//N5GE2Y4wxxtjjMjzIlnXCxG9O4w+vt9Ba55aEyq8mAYAiXDxxDvdFEen+27B86UocingEKo3C1euFVbaTode4KXB2dMOW337B0gEyBPx2CumCBJZWDSGRvYhFR6/hUuhvWNRFx6TqwgD8diodgsQSVg0lkL24CEevXULob4uga/OHfxzD+VwR0kZN0FgOQGIN64YS0IOL8A14UH1jqQUsyh4glw+yRbFswCkxg7m5HK3dduHM/uWY3CEKWxZ9juV7L6OEJDDp1hu9GwKADO2m/Iw4lQpx+941Mi/cEgMWemPXjz/h52OXEH55H2Y19cfCocPxxUXNRBuZYh72XjgAD/sUBHhvwO4QJcTiRygSAcgaoqGlDFa9XODS3hSAJRSd2kCap0IuAUrfQ/Azc4Rz2R8p8pcWIyAnFXsmWCL3xI/4JcUBPR3LLhgN8KrrBCjun8RBX1WVMjLGGGOMsbrQOXSuRiJH20kfYmKH8sexhUhMSNfaqFw+su7nQ4QETfrNwfqvNmLfFSUEsQD/m1b2WBaaqSYtWjaosl8BMjMfQoSI7IwMzRSMZl3Rt5cdzKpsVaEgE5kPRUDMRkaGWvPCYNe+6GWna2sRD7JzUUSAxNQUphIA5a9uUglUOQ+0pkY0Qru2zSCrMrgWBM3/ypq2QZuGANAQ3Savw75TZ3H0h6loU5wHklhh8LuT4WBwQG2MDLbd38HmHz7Ai/mh+HrDr8gSAUjleBS+FbPneSOt53uYN6wVpBV/3UgqnrSX/1smkwAkgiAgJ+s+ilS5UFb/a0gzxzz5HgrFEpQUVS6V27eDnbQEKqV2XBhjjDHGWG0ZH2QDgGlvTJv2MkwAiGlHsPtYpvYWZSzRrIklpBAQe+1a2QuPukghrTYYtUTLltaQQkD8hQAk6piaUo1lS7S0lgJCPC4EJFZ/CbAGKRq3fQGNpACJIkQCgCIUlwKQWqF1myZaQTCBU38nNJQQSopLNPO/RRGABA1fGYBXtMbx+Re/x64rajTsvQjrZ1b55hNRhfgrV3Anr+5DVbldazSXAKWPHqEUQP7pjzF+eQ4mfrcWbk7NUf7nTo1xcw0ytGhrB4tMXxw+k1uxVMzxhdeBeLTo1BHWQjSuVfmUQSwpRon0BfR0bFXL5GCMMcYYY9p0jqMqpkeQGqUlIgAztGjZGNL8SOz4YA1u2rYr21Ki9VV/Fhg0bgSaSkWoTm2GZ0AORIhIO70Ve8NKAJQPckWoy96T1GiAYa4T0EYGFIf+gLW/pUIAUHjrFHyjSwAQKookCkCDYXCd0AYyFCP0h7X4LVUAUIhbp3wRXaIZTJdtDAGA5YjpmNheDsrNRGYpgKL7yMkTIXthAt55zbJqQQBI0XzCbLzdVobinGyoRAFK1QOIsjZ4e+Y4NKmyZfHt/Zg3eyeyen6In31W4JXyWRdQ4+rqYejRpw96DF+DazW+6kODiotR48s8xFwEbd2DEKEFRruPRyupiLw7CcjMT0bc3XwUpQTixOV0CIV5SA8PRdQDAYKaIJJmHjkAEJX9QSECjUbNwKQ2Gdg3900s/MEHvx3YjA/dfSDv54DGY+ZjXncljmzxRlwJAIjIOBuAlP7z8cFAXZ8KMMYYY4yxWqn2rdml9+jK/7bTzO7mJAEI0kbU48359Olni2n+zDeob1tLksg70vyAsh+eKThMkxpJCLIO5OFfpFmmTqJf3+9FNjIJScybUefeI+i9bVfoARVQ3K+z6CUTCUFiRt1n7afwHKHy3EIWnft8MLU0kZDExJY6Og2liStPUrKgpsSzy2iwrZQAGbUes5EupQskZJ2jzwe3JBOJhExsO5LT0Im08mQylSSepWWDbUkKkKz1GNp4KZ2IBMq9uJ5Gtm1Fgz7dTbsXD6SWbV1oXWAOVSlBFQLlBKykIQ6D6JM93vRRn440fHUAaYor0MO7QbR/1VQa0nsYzfA8SfGPtPcvptAVPclcIiELx8/pSqn2+gKKPedNq8a2I5nEhFr2cqE33plBM2dOofEDu1MX57G0cE8YPSjbWkg9SvN7tyQr2440aNZ28v/ZndrZdKAxG8/SpSPLaXhzGZkoJtPm09EUd9Gb5vezIWkDR5r1YxClCkQFMQfIY5iCmlk1IjtnN9p8MaviuksTj9OKcU7kOGQyzX7/PZo672sKzNQdFcYYY4wxVjvVf1a9rop+w7t2E3HgQQcs/CMaWwaW/yCNgLy7YbiZrEbzLo54sXntn4oWpITjxp0C2Coc0a111XnbuhQgJfwG7hTYQuHYDUY3L85EzPUYZEpa4iWnLmhu5PdzxIdJuBGWBJm9Exzblj3xFlWIvx6HRy1eRNe2jfT/MI6oxO2rtyHt/AocbHR+YMAYY4wxxp5TjzfILryCr+d8B5P5brg1aQy2pzliTVgIPn9J75CTMcYYY4yx/zeqDbLLv7KOPZnH+buFMcYYY4w9P3geA2OMMcYYY/Xs8aaLMMYYY4wxxvTiJ9mMMcYYY4zVMx5kM8YYY4wxVs94kM0YY4wxxlg940E2Y4wxxhhj9YwH2YwxxhhjjNUzHmQzxhhjjDFWz3iQzRhjjDHGWD3jQTZjjDHGGGP1jAfZjDHGGGOM1TMeZDPGGGOMMVbPeJDNGGOMMcZYPeNBNmOMMcYYY/WMB9mMMcYYY4zVMx5kM8YYY4wxVs94kM0YY4wxxlg940E2Y4wxxhhj9YwH2YwxxhhjjNUzHmQzxhhjjDFWz3iQzRhjjDHGWD3jQTZjjDHGGGP17C8YZIt4mBCJeJWoveJvQLtsBUgKu4mUIq3N2LMnPkRCZDz+lmnztBQkIexmCvSnn3a+1oXhfQXlbUTeLdBe/LdUkBSGm9xI/56M5rA+IvISryHochQy6r7zM/d3zcGn346LkBp5C5m6u5GnpygVkbcyUXHax86zv9JfFLt/tH9ezHQOssXsUOz6bDreftsVru/Mwqeb92DP+u04X6y9Zd0IKX9gs3tvtH/JFTtj1dqr/1K6yiYm7sS0vv0we29GZWN+LCVIOPEVPvl4DfZdzYYIAalhYUgTtLf7OytE3NmfsGrGSAwYMBAj3pyJ+YuX4JMP3OE2bT7W7w9FZnmVFsbh7K7VeM9lAPr3H4BBr43BW66ueOvNtzBl7mf4z6EQpJVoHV4vASl/bIZ77/Z4yXUn/mZp8xSJSNw5DX37zcbejJrZpytfa8vgvkIS/tg8DS+374GZB5Lwt09RMRE7p/VFv9l7oSNM7C9lOIf1Eu7C59N52HDiMo792wWK7u9i392/cSYayMHiiyvQr/MgLPbLesJ7SB099XYsQhW2H58Md4DDkHUIqnV//oREFcL2f4LhDg4Ysi4ImtM+Zp79Zf6i2P2j/YNjRtryL9IyJwW98UM4qYhIeBBL/1sxlFpYTqB9Bdob111x0CekMHuRllwu1l71l6tZtnxKvBFOyY+0NqwjIcuHVi9cS5+92ZUambWiPpNnkNuKY6TU3vAfoODoNGousyFXn/JkUFPWpY30r1Zm1OYtb4pXV2xJx6Y3J1mjt+nQw7JFj1IpePcCGtDchGxe/oCOJFZsbEQxBX2iILMXl9DfMG3qiUBZ165WiR8R5SfSjfBk0pd+NfO19gzuW/QHfWhvRs5ro6m2NfRXyk+8QeFP2kj/4YSsa3S1WvL8TRjJ4ZoEyvj5DWr9+k7KISLh/jla8+488r71N7y2KnTnYDFdWuxMfVdcIJXWmmfiqbdjgZK/HUpmtm70q/alP01CMn071Ixs3X6tzKs655lhT789/UWxe4o4ZrrVeJJddP4neKf0wfQZPdEIgNSqM8avOYT/TGgCifbGj0FmYwPr+jjQU1CzbJZo59gTbcyrLnscjnD793J8deQGIs5ugNvAMfhs0RjYaG/2DyBvbAOrajGSoVm/T/DtgpeRcewr/BBS/iemHDaNrCCRyCArzzLz1ujr/g38TvwbL/7phffcv0VMrR6xyGBjY10v+fe3VRCKb1fuwe2qD5Yt28GxZxvoS7+a+Vp7BveVWcLKskbX8Ldl2c4RPZ+8kf6DFSD025XYUy15/iaM5HBNJQg5F4QCS2uYA5A2GY7P923HjBdl2hv+rejMQSEZSS98ioOrB6JR9TXPxlNvx1JYW1k++35Zag0rS62z1jnPDHkW7ekvit1TwzHTp0YLlJiaQp57Epu//AMZ5QMgaQuMnjIOdlr9XGFaJC4FXMD1pIdGPgpTIzf+CgIvhCHlkfY6AChEWuQlBFy4jqSHVY8kQnUnFIEXw5Gcl4O09Opzy/SeX52D26H+OB9wFQkqY6M4w2UrSo1ATNWPoEQV7oQG4mJ4MvJy0lCtSIVpiLwUgAvXk1D1MqTNWsE07U/kiGZoqXgZTr1eREur6qFX59xGqP95BFxNQPUiFyI5MhbZQhHSbl5BbG7VlSLSw8/Cz9cXfhdjoRIBIe06zvj6wvdMCO4Wlm9XgOTIOOSIQElmNIKDY5Cl1Rb0n782JLC0MIdEfIg8PXN8q7LsvQir3F5A/sVv8O25ikLWpM5F/JVAXAhLgY6q0RvvcmJ6OM76+cLX7yJiNcHB9TO+8PU9g5DK4KAgORJxmuAgOjgYMTWDU4d80pfL+utAzA7B1unvYvOVRIT/7gf/qOyyfC5CakSM1kfQhvPVcD0a3reSBJKynozU2bgVEoLoGhNj1ci5HQr/8wG4mqCq/nF0QTIi43IgogSZ0cEIjslCza63BFmxlxEQEIp4ZfWC6r8GPW2hKBURMdWndOk/hi4FSI0IwoXLt5BVXILMhEQ8FNMRftYPvr5+uBirgggBadfPwNfXF2dC7qJa1hrJw6pKsmJxOSAAofHKGh/hC8oEXLt4ASGxWWUfg1fSm6NiNkK2Tse7m68gMfx3+PlHIbuiDHXPxUpFSI+6hMCgcCTl1byo2sdXO4cNnLs4GVfO/I6QO3kQ7sfgnO8ZBMc/rDiSofigMBmRsdkQitJw80osNKlRiJQIzfxNQZWAa8FhSC7vr0syERMchJtpWnltpK3rrT8dOQg0wav9WyL5aiyytAtcqzZShaH7DgQoE67h4oUQxFY7US3asc64wUDuVCctP4EWQ3Ulqu4gNPAiwpPzkJOWDkMzxnXHW1pxXZW080xD3xjhsdqTvnZusG700xU7/e3K8FioOu2+tbbjBBis97rHzMA94pnErG659rTUGGSbDfPAosFSBK/7FxwHzsF3F1JRAsB21DgMMSvbSEyH39rZWOQViIirh7FogAKDVpxDjq62WBiJnVNdMGtXOFLjT2C5hxduVwmEmO6HtbMXwSswAlcPL8IAxSCsOKfpfCK2usPjYArURTHwntIHb/+UqOmIDJxfSNiP6X3ewrc37yMj2BMuigFYfVnPQM5A2URlGA59OhIOHQdh9YWyjqkkAlvdPXAwRY2iGG9M6fM2fkpUa5LYby1mL/JCYMRVHF40AIpBK3AuR43sK3uxcKgDFKM8cWjXHLiMdsPU0b3QfYIX4gUAEJCwfzr6vPUtbt7PQLCnCxQDVuNyoYisEG8sGOoAxYhV2LHhbQzo1xe9Z+xDTsUFSNG47QvI/HkOxs/ehRg1IGvcBs3jtmLKuE/gk1b6BOevOIlR6pRTWP/jZUhfnAy3QbV5lmCJASP6oRGlI8g/SnslAKAwciemuszCrvBUxJ9YDg+v21Uaqb54V09AaeO2eCHzZ8wZPxu7NMFBm+Zx2DplHD7xSUNp9hXsXTgUDopR8Dy0C3NcRsNt6mj06j4BXprg1CmfdOdyNjIN1oEIVVoOLGwbQhSLUaBSIa+wBMqwQ/h0pAM6DlqN8vQzlK9G69HgvrpR5il49HNEv+ED0N2+C8Z/ew35ACAkYP/0Pnjr25u4nxEMTxcFBqy+jEIxG1f2LsRQBwVGeR7CrjkuGO02FaN7dccEr/iK+hOzA7B+mjv+cy4JWRHbME7hDI9j6RD1XoOetuC+A/6HPsVIh44YtPpC2UtP+o5R9coqFUbvwbzRU7HhTDRiL3yNyY7t0fWNnYgVG6PtC5n4ec54zN4VAzVkaNymOeK2TsG4T3zK3qeoXR4CmhtRwPppcP/POSRlRWDbOAWcPY4hXQQAFUK+cYfrUh9EJsfh+KKB6OqyBv7ZIkQjOSqq0pBjYYuGoojiAhVUeYVQP3YulpU17zI2ThiLL0JKYZZ3Ch/26YJXho7E6LfWwb+wtvEVtXJYNN4XUQkK8lQoKAWotAB5KhUeFAkQDcQHYhZCvBdgqIMCI1btwIa3B6Bf31cwZc12LHpNgU6DV8HnyBeYMtkd773VF136LILftX34YMwbmDF3Ivp0GYgvygpvsK3rqz+1EmE1chBQhXwDd9el8IlMRtzxRRjY1QVr/LMh1rKNVKP3vgNAFYJv3F2x1CcSyXHHsWhgV7is8a/yh5aedqwzbr0xY1+OntzJMfIgrZyBugJQErEV7h4HkaIuQoz3FPR5+yeUX0o1+uJdoxDaeVa+WPcYITvzcdqTgXZuqG7qxFC7MjAW0qK7b82EjcFxgibr9NW7+nH6IH33CBjJ5zoxFLM65NrTpj1/hIiI8qPp0CdD6QUzCUmkjejFN1bTyYSispUCZR6aQkOXhpBmNqdASVsGk6mJI60MK612GKICClrSgzrMqJx/nH9yJtmZlM0FFTLp0JShtDSkbF6okERbBpuSieNKCisIpsXdetFnIZrJN0LGAVq3LZpKDZ6/iG59+So1cFpNkaVEVHqFlnUzp14rw0i7ZEbLRkRC+vc03MyaJh3WzD8uDl5M3Xp9RpoiCZRxYB1tiy4lIfMQTRm6lCovYwsNNjUhx5VhVEpqurOpP5laO9OCYwlUTESqX6dQc7MBtOmOmkh9i758tQE5rY4kTZGXUTfzXmWxFChpyxAytehOC37PImX0OfK7mUNCWXk11BSzrjeZd15Ml8rOX3xpMXW26Etf/akmeqLz11QcOJ86yk3Irp8rvTdrJk0d9yq1tZSRuf0E+i686qT9Ygqc35HkNq5UMX276toLC6mTXEqtZp7UXkVUEERLenSgGccqaoZOzrQjk7I52YbjXZ06Zh31Nu9MiyuDQ4s7W1Dfr/4kNRGp72yi/qbW5LzgGCVogkNTmpvRgE13SE3q2ueToVwuNVIHJFDad8PJ3G4WnS5vZiRQ+vfDycx6EmnSz0i+GqxHI/tqK71Cy7qZkt24rXQlR02UH0k/TrQnEzNnWhNRSupbX9KrDZxotSYodGVZNzLvtZLCSolIfYc29Tcla+cFdEwTUPp1SnMyG7CJNJeaTgddHcjl+yRNHpdG0abBjan19KOUb/Aa9LQFIZ2+H25G1pMOUwGRkThoefgHLezmSEsulSdoMQUvfpHMui2jK6VEpI6hdb3NqfPiS2V9TTFdWtyZLPp+RX+q65KHAqUfdCUHl+8pSXPRFLVpMDVuPZ2O5hMpT88lRZeFFFg+z7AgiBZ1MaVWk3+hDMFYjhIJad/RcHM7mlWePE+Ui6UUufYVaui8lqLVmrLe+HcPMus4nwKK6xjfGjls7NxERAX083hzsnH10dQnGY8PCUm0ZYgpWXRfQL9nKSn6nB/dzCmltO+Gk1mDPrQsMJ3URFR843PqZdKI+n72O90rJaLSMPq8lxl18PCnIoNt3XD9kXYOKk/TXEUXWlhZYApa1IVMW02mXzQVariNaNF33yFS0um5CuqyMLBiLnJB0CLqYtqKJv+SQYKRdqwzbtnpBnKnSqHKPNg9lsyrzJE1XFfFFLy4G/X6LERTXiGDDqzbRtE1jmsk3vSAdo81rzInWzvPDI0RSuvcngy18wK9dWNctdgZalfF+sZCWgz1rcbGCQb7jLr3QYbuEfrz2bhax4xqm2tPX40n2QAAy66YvPkPxNz4Lz4f3wppx1ZhQv838UOMGkAhAo76IfX2SWz29ISn5wYceOSCVWumwclC6zj5fti+JwHdhwytmH9s3t4ercqnnRQG4KhfKm6f3AxPT094bjiARy6rsGaaEyzkdlC0S8LX4wZh+pdHEG3iihUfdYXc4PllUMzbiwsHPGCfEgDvDbsRohRR/Kio5l/hxsoGQGplhYZVPp2Q2ynQLulrjBs0HV8eiYaJ6wp81FWOwoCj8Eu9jZObPeHp6YkNBx7BZdUaTHOyACBDw4aWkFn1gotLe5gCsFR0QhtpHlS5BMgUmLf3Ag542CMlwBsbdodAKRbjUZEIQAoLC1NIrZ0xfGAz2HQdDpcejWt+/GDQk5xfH0sMWOiNXT/+hJ+PXUL45X2Y1dQfC4cOxxcX87Q31ony81FIUljZ2GqvQr7fduxJ6I4hQytqBu3tW6EybQzFu25kDRvCUmaFXi4uaK8JDjq1kSJPlQtCHfLJUC4bqwOdpLCyalg5/8xYvhqqR2P76iRDq1eG4+XGMsCyG97b/AkGSCJx4eJ9SBTzsPfCAXjYpyDAewN2hyghFj9CkQhA1hANLWWw6uUCF01AoejUBtI8FXIJgNIXh/zM4OjcUpPH8pewOCAHqXsmwNLQNehrC1IrWFVtpAaPUV3eqR3Y//BVjHRqULZEhkaNGta6fdU+D5XwPeQHM0dntNRcNF5aHICc1D2YYJmLEz/+ghSHnnAs/xCowatwnaDA/ZMH4asylqM6PFEuqpGYkIISqaQs9+Ro374NkJaIxEd1i2+NHDZ6bl2MxwdSC1iYSmHtPBwDm9mg63AX9GgsR0PLBpCYtsfLzi0hA2CqcEA7OdDm5f6wkwOQ26NdawnylEojbd1Q/QHQysHcEz/ilxQH9KwsMF51nQDF/ZM4qKlQw21Ei777DnJP4MdfUuDQ07FiLnKDV10xQXEfJw/6QgUYbMeirriZXzCQO8YYqys57BTtkPT1OAya/iWORJvAdcVH6CrXOoyxeNegnWeGxgh1b0+G2rneuqkrQ+1K71hIi6G+VXtbbQb7jLrHTGbgHvFMYoba5trTV+N+Ity5hrCyj3asur6F1b+F4fq+d9H+/hl8ueUsID5Eds4jmHWZgCXLlmFZ+X9LF2Jc5+pXIKTE4k8VIJPXOA0AQHyYjZxHZugyYUnlcZYtw9KF49DZtC1m7juLHa5WCFw/CS937ocFR5MhGDm/VP4I4VtnY553Gnq+Nw/DWkl1JoGxsgEAJJVz2gBA2nYm9p3dAVerQKyf9DI691uAo8mleJidg0dmXTBhSZXyLFuKheM6Qw5AojWPSCKTQQKCSAAghfxROLbOngfvtJ54b94wtJJWLXHNOUh19WTnN0YG2+7vYPMPH+DF/FB8veFXZOm631ajRvy1MGSRLZz7dtdaJyAl9k+oIIPuqhGNxrtOJOWDifJ/yyCTAKQJTq3zyWAuy43VgW6SKmUznq/669H4vsZJm3VAexsJBHUpIJXjUfhWzJ7njbSe72HesFaoTJnqbQaQQKYJKAiAkJOF+0Uq5Cp1Xbj+a9DQ1RYkWrE1doxyAtLuJCJfbgoTXYc1qg55KOQg634RVLnKmrkjZCL5XiHEkpIq3/Erh307O0hLVFA+EI3mqLYny0VTvDpmJFrEnceZuwKAYtyKTYLt8LEY3BB1iK9G1Rwu/3dVRttBbeID3amhfS5IpJBUqwEJpFKAyhbpbeuG6g/QykEBmcn3UCiWoKTK9Ge5fTvYSUugUj6AaKSNaNN93xEgZCbjXqGIkuonQjs7KUpUSpSHpqpq7Rg142YsdwwyWldA25n7cHaHK6wC12PSy53Rb8FRJGvPkTEa75qq5ZmRMULd2pPhdm6qp27qzkC7kuoZC2kdwXDfapjReq9TzGDwHqEvn+vOQMwgrV2uPQM17rrq+P9il1/5i1cAYA6HyWswr68MD5QqQGqN1q0aINZnF84rK/cTEnxxKqL6hBdJ46ZoLC9C1PVwVP+KbYIoAlLr1mjVIBY+u86j8lACEnxPIaI4BVH32sB963nERp/A8h7J2O6xHudKDZ1fhdMfj8fynIn4bq0bnJqX9wo1E8FY2XQRUqJwr407tp6PRfSJ5eiRvB0e6/+AWetWaBDrg13VCwTfUxE6501Vk38aH49fjpyJ32GtmxMMFFkvmVymo4MmUG0Sqh7ODwByu9ZoLgFKHz1CWfetl5hzBt/suQlZt5n4aLSV1loJGjdtDHlRFK6Ha30xO4kQIYV1XeItk0Om4yZOtQtOrfPJYC7XKFTdGc1XA/VodN/aKMzG/Udt0evlFig8/THGL8/BxO/Wws2pecWAsmZUapK1aAs7i0z4Hj6D3PKFYg58vQ4gLk//NdSagThUJ4GNbSPg3jWE6P0OZhk0TatG8kCoSx7KWqCtnQUyfQ/jTOVFI8fXCwfiW6BTR2sI0ddwvWJes4iS4hJIX+gJx1Y1umijniwXpWg2YQu2u5vh/DdrsWXzlzhq8Sl8982Cvawu8a0nstb1Hh/dDLR1Q/UXp507MrTu1BHWQjSuVRYYYkkxSqQvoKdjq5o3XSN033fOQd26EzpaC4i+dr3yRVyxBMUlUrzQ0xE6Q1OlHeta/US5Y7SuCClR99DGfSvOx0bjxPIeSN7ugfXntPr5OsVbhzqMUYwz3M6L9dRNnX9SxFC7EvSMhWqEzUDfKhgeJzxRveuQb+AeoS+f6zVmEGqXa89AzXZGSpxevwQHYys7CCE1GKF3W2L85OEALDFihhvaJ3rBdcgUrPnJB0f2emLWZ8Gw7FD9T11ps7GYOqYpEnZ9jOUnk1GCYiTdiEKWoERqUgbyJCMww609Er1cMWTKGvzkcwR7PWfhs2BLdJCkwGejF24UAub2r2P55xNh38AM5hID57cvwJ2ETOQnx+FufhFSAk/gcrqAwrx0hIdWf8HOaNkKAYgCRKociAgpPtjodQOFMIf968vx+UR7NDAzR8MRM+DWPhFerkMwZc1P8DmyF56zPkOwZQfIIUIQ1CCxykCPSDNgFEWIeXeQkJmP5Li7yC9KQeCJy0gXCpGXHo7QqHxNxqhLaw4eK8jQ3K4lTFND8PuNTGTdOoXtey4hR52NlLv38bDoSc9fHRUX13hbHGIugrbuQYjQAqPdx5d17oSSkhpbQp3uj/WTZ2Ff0Wv4cs/n6FvjPUkpmo2dijFNE7Dr4+U4mVwCFCfhRlQWBGUqkjLyIDEY7+pkze3Q0jQVIb/fQGbWLZzavgeXctTITrmL+w+LIAoC1CRWGUgRCKSJjZhX63yCpYFclhuuA0AKc3Mz4EE60nKzERoUAU36iSASIdYiX5UZ+uvxauYwg/vm1XhpDQAIhXmqso6vCJG79uPOvz7Hgr5y5N1JQGZ+MuLu5qMoJRAnLqdDKMxDengooh4IENQEsUpnrrlUUdOOGo3CjEltkLFvLt5c+AN8fjuAzR+6w0feDx3y9V+D/rYgQhAJVNZIa5/PUjT/15sYYhGKr6Z8gO1nruD6H3uw+4/0yidEsuawa2mK1JDfcSMzC7dObceeSzlQZ6fg7v2HkNU6Dxth1IxJaJOxD3PfXIgffH7Dgc0fwt1Hjn4OjTFm/jx0Vx7BFu84TdsSM3A2IAX953+AgWYwnKMApObmMMMDpKflIjs0CBGG+lWjuQgoTy/DFylv4Jv1S+Hx8WpsXD0VvcrmGdU+vmXbV8lhGOkLNUpQUkooKSku26eR0fhojgOoS6tnhiCKZX+YlyNN7CpGGZr/L4oCYLCtpxioP1mNHGw0Zj7mdVfiyBZvxGkKjIyzAUjpPx8faCrUcBvRou++I2k0BvPndYfyyBZ4a04EMeMsAlL6Y/4HA6EJjb52bKo5uHbcDPZjlZuVEwShrP5Qi7oSkOKzEV6amzpeX/45Jto3gJm59scQhtqLDIAAzWkr67Z6nhkYI3SQ17k93emvv51L9NUNCnF123SMeWcNztR8WxPQip3BdhURp2cspHVAA32rg8zIOEFmuN7rFrMLuHxL/z0iIu4ZxCwqr5a59gxoT9Iu+n0FvfXubHpn7Cga95YrTZ44joYNep0+2n2Tyn9ThKiAYvZ70DAHWzIztaa2/efQnigdb7cRkaC8Qt+796F2tjZk7zyWPlo1k/q070tu/95Nl9MFooIY2u8xjBxszcjUui31n7OHogo0L6gt79eRer3mTp+uWkNL58whz/MZZS/96Tu/QKlH51PvllZk23EQzdruTz+7tyObDmNo4+WaPwdgsGx3oujEF6OotUxO9hPW06m4Iiq+tJz6dexFr7l/SqvWLKU5czzpfEZZiWL2k8cwB7I1MyXrtv1pzp4oKiAiVcQRWj68OclMFDR582mKjrtI3vP7kY20ATnO+pGCUlLo6Pze1NLKljoOmkXb/X8m93Y21GHMV+QXeIiWvdaKZDI7cllxiK7dr/7KY4UHQbRuRFuytrYjx4kbyf/0EnLqNJimr9pP/hf++5jn30jVQ1ZAsee8adXYdiSTmFDLXi70xjszaObMKTR+YHfq4jyWFu4JowdERAWxdM57NY1rJyeJSStyGvcOzZg1k9xdx9DgfkPJdclOCkoz9AaCQMor35N7n3Zka2NPzmM/olUz+1D7vm70792XSZM2uuNd0wMKWjeC2lpbk53jRNrof5qWOHWiwdNX0X7/C3Rk+XBqLjMhxeTNdDo6ji56z6d+NlJq4DiLfgxKqVM+6ctlozmQKpA6fje9o7ClJooJtDnkIeXHnKAvRrUmmdyeJqw/RXFFRvI11XA9Gtw3XTuvCujP4+vo3cGv0KDx7vTh/Nn0wdoTdKfsZSYh9SjN792SrGw70qBZ28n/Z3dqZ9OBxmw8S5eOLKfhzWVkophMm09HU9xFb5rfz4akDRxp1o9BlCpo4nTAYxgpmllRIztnctt8kbIEIhJS9VyDvraQTzEnvqBRrWUkt59A60/FGTiGdj4TEakp7fcvaGyXZtTQ2p6GfuxDvl84k0X5i49E9CBoHY1oa03Wdo40caM/nV7iRJ0GT6dV+6/S/TrlYQHFHPCgYYpmZNXIjpzdNtPFrPK4l1Li8RU0zsmRhkyeTe+/N5XmfR1ImQIRqSKM5GgqkTqedr+jINsmCpqwOUTTTz92LpZS6sF3qZ2ZhACQRCIlE3Nrat5pMM3bd4uK6xBf7Ry+ds3IuZPi6fwP82lAEylJmw+lJV7/pcv3NC9j6o2PkEM3Di2j11rJSGbnQisOXaP7AlF+zHH6YpQdyeQd6K0NJygyKZx+WzuO2srk1OENT/rfzbt0zWclvW4nI3n7N8jT9zbdNdjW9dWfjhwkotLE47RinBM5DplMs99/j6bO+5oCNRVKEbVpI1UYuu9QaSIdXzGOnByH0OTZ79N7U+fR14GZFfdJve1YT9w0u+nOHW2PYk/SSpeWJJO1ownrj1HUAzJcV1RMl5b3o469XiP3T1fRmqVzaI7nec3LqzXoi/cjij25klxaykjWbgKtPxZVI8/iisr21zVGeMz2pK+d660bIZV2v9GSbJo2p/5rIrUvrmbsVAbaVZahsZAWfX0rGR4nXNV0Zrrr/TFilqf3HnGZsp5FzFR1ybWnS0JU+Xc9Y4z9/yUgZl0fOB8egcCwL/GKjid3zz8RqcfXwOvhm3B3FHFfmYf8wnwo027i8N50zPbdhhHlT48ZYwaVBC3HB9dn4acFHbRXMT2et5jVnC7CGGPs/yUxdR88Ft5Eh3/1QIeuvdC7/2AMGzEab010gfMrL+mcMsAYq0nMCcbOk03w7rTnY7D4LDyPMeMn2YwxBgAoxoWF3fHasdfge+sHDK/xvsDzT8w8ho+GTcOBYieMHd0XiuYWEPJSkJDZFONXrsbbHXmUzZhRohI3/aPRqP8A2P8/7Ecey3MaMx5kM8YYBKRe2oeDZ+KQU2oC2w7D4PreEM03avx/U5yK0JPHERCZhkKZLdq9PALj/9UdTf4/xoIxxp4AD7IZY4wxxhirZzwnmzHGGGOMsXrGg2zGGGOMMcbq2fM5yC5KReStzCo/QvDXKEqNxK3Mv7oUf3cFSAq7iZQqvwz8/4eIhwmRiFfVR47UIo7iQyRExqNeTscYY4wxg56vQbaoQtj+TzDcwQFD1gXV/GXCZ0RUhWH/J8Ph4DAE64L+qlL8M4iJOzGtbz/M3pvxl/9R9CwJKX9gs3tvtH/JFTtj9f+eZ20ZjqOAlD82w713e7zkuhP1cDrGGGOMGfF8DbKlNnB0+xjjFVTxc7V/BamNI9w+Hg/F03inVMzG9Wt3Kn/6+R9Oaj8HP18Oxo/TWz5nyWiYrM0weMwejCb1lCOG4yhDm2EemD24SZWflGaMMcbY01TzfvxPJ7WGleVf8Pv0WqTWVngaxSgI/RYr99zG8/Mw0hLtHHuizXP0vZi1JbOxgXW95YixOMpgY2ONejsdY4wxxgzSOcgWVXcQGngR4cl5yElLR4GYjvCzfvD19cPFWBVECEi7fga+vr44E3IXhVV3LslC7OUABITGQykAqO2+hcmIjM2GUJSGm1dikSsAgAjVnVAEXgxHcl4O0tILKs+jzsHtUH+cD7iKBFXV57pSSHSNJArTEHkpABeuJ+Fh1c/TRRXuhAbiYngy8nLSUPUUZRsgJzoAfr6+mjKHJmrKXJiI0DO+8PULQHROzQ/oIZXUHNDoLbOOmFdbCwAiskO2Yvq7m3ElMRy/+/kjKlsEUIjkyFhkC0VIu3kFsZrAAVAj53Yo/M8H4GqCqvqT74JkRMblQEQJMqODERyTVX3QbiAm6pzbCPU/j4CrCdC6BAAlyIq9jICAUMQrtVfqX1eUGoGYDK0YCkokXLuICyGxyNKecWOs/HiS+i4jPsTd6AQ8FAUo40NwITRe63r1xV2AMuEaLl4IQWyNggOAGrnxVxB4IQwpj8qXiUgPPws/X1/4XYyFSgSEtOs44+sL3zMhuFu9gdUtjupcxF8JxIWwFFScrnKl/hypbZwYY4wxplONQXZJxFa4exxEiroIMd5T0Oftn5AoNkbbFzLx85zxmL0rBmrI0LhNc8RtnYJxn/ggrWxAnB2wHtPc/4NzSVmI2DYOCmcPHMu0MbxvaRZCvBdgqIMCI1btwIa3B6Bf396YsS8dEVvd4XEwBeqiGHhP6YO3f0qEGoCQsB/T+7yFb2/eR0awJ1wUA7D6crWRSBUi0v3WYvYiLwRGXMXhRQOgGLQC53JEoCQCW909cDBFjaIYb0zp8zZ+StQerklh0bAAZz+fhDFu25HYvBnMAcC8CWSX1mH5yQLYNKwRxhoMlVlnzLWLIaqQlmMB24YixOICqFRK3Av1xoKhDlCMWIUdG97GgH590XvGPuQICdg/vQ/e+vYm7mcEw9NFgQGrL6NQzMaVvQsx1EGBUZ6HsGuOC0a7TcXoXt0xwSteM8jSGxMBCfuno89b3+Lm/QwEe7pAMWA1ysMuZgdg/TR3/OdcErIitmGcwhkex9IhGlinVobh0Kcj4dBxEFZfqHxjTxXyDdxdl8InMhlxxxdhYFcXrPHPhlib8j9xfQtIubANs3q3Q1e3bTiweiRefnUEXuvbBYpha3ApT0RWiJ64q0LwjbsrlvpEIjnuOBYN7AqXNf7ILh/3FkZi51QXzNoVjtT4E1ju4YXbAgBI0bjtC8j8eQ7Gz96FGDUga9wGzeO2Ysq4T+CjaWB1jmNh5E5MdZmFXeGpiD+xHB5etysH0vpyBIZygDHGGGO1RtUUU/DibtTrsxB6REQkZNCBddsoupSI1DG0rrc5dV58iYrLtr20uDNZ9P2K/lQTCekHydXBhb5PEoiIqDRqEw1u3JqmH803ui8JSbRliClZdF9Av2cpKfqcH91MD6LF3XrRZyGPSFOUA7RuWzSVkppuffkqNXBaTZGlRFR6hZZ1M6deK8OolIiIHtDuseZk6/YrPSIiIfMQTRm6lEI0JyYhaQsNNjUhx5VhVBC8mLr1+ow0pxAo48A62hatOYq2gsCFpDDrQkuCizQLhAzaO3Uy7UjWXG8ND3bTWHNbcvv1EZHBMhuIuTYhjb4bbk52s06TphQCJW0ZQqYW3WnB71mkjD5HfjdzqOTWl/RqAydarTkZXVnWjcx7raSwUiJS36FN/U3J2nkBHUsoJiIV/TqlOZkN2ER31ETF+mKivkVfvtqAnFZHkuYSllE38160MqyUSEing64O5PJ9EglERKVRtGlwY2o9/SjlG1pHREL69zTczJomHS7QXKPyNM1VdKGFgZp6JyqgoEVdyLTVZPolQzBa/vqp72IKXtyZTFoNoy/87lEpFVDMj2+QncyUnFbdpFKdcU+gk3MV1GVhoKYeiaggaBF1MW1Fk3/JIIEKKGhJD+ow4xgpy9bnn5xJdiYv0pLLxUSkpph1vcm882K6VFb24kuLqbNFX/pK08DqFseCIFrSowPNOFZxNjo5045MXlxCl4uJ1AZyRG8OMMYYY6zWtB7BymGnaIekr8dh0PQvcSTaBK4rPkJXefWtdFH6HoKfmSOcW2oOKX9pMQJyUrFngqX2pjVJLWBhKoW183AMbGaDrsNd0KN5GyjaJeHrcYMw/csjiDZxxYqPukIOGRTz9uLCAQ/YpwTAe8NuhChFFD8q0vGtCkBhwFH4pd7Gyc2e8PT0xIYDj+Cyag2mOVlAbqdAu6SvMW7QdHx5JBomrivwkZ6LbdDfAx8NSMXer48gUwSEJB+cMnkDE9sYf4oNg2V+/JgDUlhYmEJq7YzhA5vBputwuPRoDBPFPOy9cAAe9ikI8N6A3SFKiMWPUCQCkDVEQ0sZrHq5wKW9KQBLKDq1gTRPhVyC/pjIFJi39wIOeNgjJcAbG3aHQCkW41GRCCh9ccjPDI7OZS/dyV/C4oAcpO6ZAEtD6wBIrazQsMq8mtwTP+KXFAf0dCyfXNwAr7pOgOL+SRz0VRktf/3UtxQWFuaQNeuH8cPtIEcDdHFfjdm9CJGBgcgUdcT9hSDs+iUFDj0dNZ90AGjwqismKO7j5EFfqPL9sH1PAroPGQqbsvXm7e3RqrY/VV3HOOb7bceehO4YMrTibGhv3wrlp5MZyJHax4kxxhhj+miNEKVoO3Mfzu5whVXgekx6uTP6LTiKZO3ptTUIyMm6jyJVLpSP++0F2hOYpW0xc99Z7HC1QuD6SXi5cz8sOJoMAYBU/gjhW2djnncaer43D8NaSfV8m4iIh9k5eGTWBROWLMOyZeX/LcXCcZ1h2nYm9p3dAVerQKyf9DI691uAo/ouVtYB0z6eCPNTX2NHZBGi9/ujxeQxaKy9nR76y/y4MS+nHTgAUjkehW/F7HneSOv5HuYNawVpRYAkWnPWJZDJJACJIABSvTGRQv4oHFtnz4N3Wk+8N28YWpUdVMjJwv0iFXJ1VL6hdQAASdXyCMhMvodCsQQlVb7vWW7fDnbSEqiUDyAaLH891rc2eUe81MkSKC1GMaFG3IXMZNwrFFFSveBoZydFiUoJZVIs/lQBMnlt/iirqa5xTIn9EyrIoPd0BnJEfw4wxhhjrLa0bsECUqLuoY37VpyPjcaJ5T2QvN0D688VA5BBLgNI1LrJE0GADC3a2sEi0xeHz+RWrBJzfOF1IA6CwX31EFIQda8N3LeeR2z0CSzvkYztHutxrjgfpz8ej+U5E/HdWjc4NS9/wqZr8CGFdetWaBDrg13nlZWLhQT4nopAcUoU7rVxx9bzsYg+sRw9krfDY/05FFc9RBWNXBZibo9b+PGrNfj+xkt4d2gD7U30MFRmQzF/PPmnP8b45TmY+N1auDk1h6EIaRP0xST/ND4evxw5E7/DWjcnVL0EWYu2sLPIhO/hM6iofTEHvl4HEN9U/7q4GpUvQ+tOHWEtROPa9co59mJJMUqkL6CnYyvthNVSv/UNoiqfjpSisEhE8y7d0FrH02dZ607oaC0g+tr1ypd5xRIUl0jxQk9HtG7aFI3lRYi6Hq51PoJYdhKZppFo1ROBBMMxrhlHCRo3bQx5URSuh2tdHYkQjeSI3hyofiTGGGOMGVBzkO2zEV43CgFze7y+/HNMtG8AM3MJIGsOu5amSA35HTcys3Dr1HbsuZQDdXYK7t5/CLNRMzCpTQb2zX0TC3/wwW8HNuNDdx/I+zlAZmTfImju7urSKi9XCSnw2egFTVFex/LPJ8K+gRnMKQ93EjKRnxyHu/lFSAk8gcvpAgrz0hEeGgVAgCAAJGoGE5YjZsCtfSK8XIdgypqf4HNkLzxnfYZgyw6QpPhgo9cNFMIc9q8vx+cT7dHAzFzXs2ENeVfMXjgGpf/9BtF934WToU/QBQECCKIoAqKhMkfoj7k2qTnMzYAH6WnIzQ5FUERheeCqfLuGiLw7CcjMT0bc3XwUpQTixOV0CIV5SA8PRdQDAYKaIFYZzBGVxUsEBD0xobw7SMjMR3LcXeQXpSDwxGWkC4XISw9HaMpAzJjUBhn75uLNhT/A57cD2PyhO3zk/eDQeJT+dTIAogCRKgeajcbMx7zuShzZ4o24Es31ZJwNQEr/+fhgoBkgGi5/fda3mJ2ExPyy/592HMcjumHeB8PKpoNoxb3RGMyf1x3KI1vgrSk4xIyzCEjpj/kfDIRFs7GYOqYpEnZ9jOUnk1GCYiTdiEKWoERqUgbyCmVobtcSpqkh+P1GJrJuncL2PZeQo85Gyt37eGhWlzhK0WzsVIxpmoBdHy/HyeQSoDgJN6KyIChTkZShRIaBHImI0xcnETlnV8P1nXXwr/I3DGOMMcZqkq1atWpV5T8FpJz/Bqu+PoKwu3cRGXgZyr5L8YWbAxpKzNH+BRGXd2/GVztOI6XjdLzT9ApCHtqisW1HODoPxhiXjsi7ehKHfv4Fv8dbYczazXi/Z0NIYGDfRk0hiz4Ir/0XEZukhNi6C3p2bY0GYgrOf7MKXx8Jw927kQi8rETfpV/ArVMLtG10H/77f8AW73PI7vwuRpudx//809D2zXfQ9OY2bPYKQGx6CSw6dMfA7q9i8Gsd8CD8LH47eAjHLmXghRmbsW7CC5CmnMc3q77GkbC7uBsZiMvKvlj6hRscqk5urUYCy04tkHY6AyM8P4SzlZ7tiuJwatNmeAXEIr3EAh16DMBrnR7qKfNUtI3brifm2gc2RaPSWzj+kxf2RLbFCOd0/PLDPlyMTYJSbI0uPbuidQMpGrZphPv++/HDFm+cy+6Md0eb4fz//JHWdiR6qw7jB+8LuJUloJFDVzTJPI0dOw7hcmwuqHU3ODb5E7tW14xJpxZt0ei+P/b/sAXe57LR+d3RMDv/P/intcWbM0Zh6Osj0THvKk4e+hm//B4PqzFrsfn9nmgoMUen4XrWFd7Cyf98jZ0BccgstYDi5d7o1NIeg/7VHQVnv8VXu/xx/Yof/O69gtXb5sPJ6gEij27BNwbK79x7MMaMeNL6FpHhvxM/hT2EkBiOy4GnceDgTXRa7oV/D7KBKuwwvv5WO+6maDPoX+hecBbffrUL/tevwM/vHl5ZvQ3znawgkVjhpRGD0SzpDH76ah2++zUUuc1s8fCugMatGqNDzx5w6N4G4uXd2PzVDpxO6Yjp7zTFlZCHsG1si46Ozhg8xqXWcVTY98SIwc2QdOYnfLXuO/wamotmtg9xV2iMVo07ot/ol1AUoCtH3sTUjnHYrjNOhPQzm7Dy5zT0mOIKZ1vDnyswxhhj/59JiPg34OpCTN4B9/XN8K3XW7DVXsmeE2qEr3RG32NjEXx9LRwNfWLBGGOMMaYDP4qqFQH5uUoUifkI3n4Wrd4dzQPs/yd0fWMNY4wxxpgxPMiuBXXEegxp1RzNW76I+bnT8HF/vb9dzZ4LauTmPoCQlwOlrh9tZIwxxhgzgqeL1IY6CWd2HEBU05GYNskZzfhPk+dYMeLP7sF/LyQiTy2Hjf0QTJoxHB1MtbdjjDHGGNOPB9mMMcYYY4zVM34myxhjjDHGWD3jQTZjjDHGGGP1jAfZjDHGGGOM1TMeZDPGGGOMMVbPeJDNGGOMMcZYPeNBNmOMMcYYY/WMB9mMMcYYY4zVMx5kM8YYY4wxVs94kM0YY4wxxlg940E2Y4wxxhhj9YwH2YwxxhhjjNUzHmQzxhhjjDFWz3iQzRhjjDHGWD3jQTZjjDHGGGP1jAfZjDHGGGOM1TMeZDPGGGOMMVbPeJDNGGOMMcZYPeNBNmOMMcYYY/WMB9mMMcYYY4zVs+d8kF2ApLCbSCnSXv5kilIjcStT1F787IkPkRAZD1WtilKE1MhbeFbFFlW3EXm3QHvxX6sgCWE3U1DP6VBGxMOESMTXrjKYTs82R59GPhQkheFmfXc4/3T1GGeOL2Psn0T/IFvIRdSxLVgyZyZmzf0ICz9Zho2HQnD35l7s9S/W3vpvSUzciWl9+2H23gzUx31bVIVh/yfD4eAwBOuCSrRXA0W3cW7nCkwZPgADhs7F/mR9Zy1AwKoxGDhgCN5e/B1+u5alvYERAlL+2Az33u3xkutOxKq111clQhW2H58Md4DDkHXQVWxjhMQL2Pf1Rxg/aAAGvv4O5s6bh3nz5mHevNmY/uZIDH13O2KqlUFEyoGvsCf6Ds7uWo33XAZgwIDBeG3M23B9ewLGvz0TS3/wR/IzTSMRiTunoW+/2diboa9eHo+Q8gc2u/dG+5dcsdNwZTCdnjxH6+4p5IOYiJ3T+qLf7L2or0P+89VjnDm+jLF/GtJBSP+dVgxpT93e2UqByUVlS/Ppz+P/pqEtLGjk9kytPeqfkHWNrsartRfXUT4l3gin5Efayx+fkPwtDTWzJbdf9R30Af0yyYakEhN66bMQKtZeTURC6k80xkZKMOlHG/583GsspqBPFGT24hK6rOsk1QiU/O1QMrN1I73FNqbInz5qLyOzsbvpQbXlMfTNzBUUUJ4mRETqBNo6YzH98YiIqICOTW9OssZT6Leyf/95eDZ1szChF97eQwkGL1+grGtX6YnToFx+It0IT6bHDYEhxUGfkMLsRVpivDKea4/fbushR+vqKeRDfuINCq+vDkfIomtX4+lxovls1LJ91mOc6zW+jDH2lNV8kq2OwdYprvi2eDYO7vHAoDZmZSss4TB2NQ57vQubB0qtnepbAUK/XYk9t5/0qaAl2jn2RBtz7eWPT2ptBUuJ9tKqTGHT1Al9X2mEuL3f4liO9no1In/6L/K6OMBE0hDW1gYPZoAMNjbWqN3eUlhbWdZyWz1kDdGoYc10gVlnTP3oDbwgr1wkJB1HWNPR6GcOAHLYNLKq8pFJAzhM2oCloyyRemwb9ht68lsQim9X7sETp0E5y3Zw7NkG9ZgOFWQ2NnjsqnxuPEm7rYccraunkA+W7RzRs546nILQb7Fyz208TjSfidq2z3qMc33GlzHGnrYaoyblsS+xIVDE8Lmz0N1Ue60UzUZ/ghk9qi4ToEy4hosXQhCbpf05bwGSI+OQIwIlmdEIDo5Blta0AtWdUAReDEdyXg7S0gsAMRshW6fj3c1XkBj+O/z8o5AtAihMRmRsNoSiNNy8EoOY62fh5+sLv4uxUImAkHYdZ3x94XsmBHcLK89QlBqBmKqfLVY7TixyhcpV1RUiLfISAi5cR9LDKvtLJcYHAhJrjPhwKhxyjmHb7jhUO8XD37EjuDtmvmZVdWklQYmEaxdxISQWNcIJAOpcxF8JxIWwFDzSXgcAhWmIvBSAC9eTUL3YukptqO5qpzAyApndnNBRVr5EwN1j4Wg+pi/K/zyryQwNG5pCAoKgJ/5idgi2Tn8Xm68kIvx3P/hHZVdM+SlMi8SlgAu4nvSw+jSggmRExuVARAkyo4MRHJOlNUApQmpEjNZHzXrq2WjuAoAaufFXEHghDCk6K6Ou8X2SsmgrQVbsZQQEhCJeKQAQkR5euzajvxxAQXIk4jQFQXRwMGLKC6Kv3UKNnNuh8D8fgKsJquptQYuuHFXn3Eao/3kEXE2ASmtnUXUHoYEXEZ6ch5y0dOh7A0D/drryAShKj8KlwCCEJ+VV5JeYHo6zfr7w9buIWE3wcP2ML3x9zyCkeoeDiBit6Wl62qT+fBWRHbIV09/djCuJ4fjdzx9RmmCWHU53/uu/zuoKkyMRmy2gKO0mrsTmVtaJvnKKKtwJDcTF8GTk5aRB003rbp+6j607ziVZsbgcEIDQeGWNvNC7Tld8Dbaz2rQdffmu4/5U5mHCdURl1DgQY4xVozXILsSF478jS6qA8yuNq68qJ38R//pXZ83/V4XgG3dXLPWJRHLccSwa2BUua/yRLYrIvrIXC4c6QDHKE4d2zYHLaDdMHd0L3Sd4IV4AgBJEbHWHx8EUqIti4D2lD97+KRElqjTkWNiioSiiuEAFlfIeQr0XYKiDAiNW7cCGtwegX98++PRyQ2T+PAfjZ+9CjBqQNW6D5nFbMWXcJ/BJEyAqw3Do05Fw6DgIqy8UAWIWQmocpzdm7KvxqBliuh/Wzl4Er8AIXD28CAMUg7DiXE6d5nWbvDwP7w+U4rLX97hYcQ8WkfLLHmSOmQ1Hk+rbA4Aq5Bu4uy6FT2Qy4o4vwsCuLljjX2VwGbkTU11mYVd4KuJPLIeH1+0qNyAR6X5rMXuRFwIjruLwogFQDFqBczl6Sq237rQ31E+ddwuHvt2PW1Xva8IdHItoiTF99A+xi2K84eWbC9shMzD5pSqPwCuIUKXlwMK2IUSxGAUqFfIK1YCYDr+1s7HIKxARVw9j0QAFBq04hxx1Nq7sXYihDgqM8jyEXXNcMNptKkb36o4JXvEQIEIZdgifjnRAx0GrcaHsvSnd9ZyNTKO5C6AwEjunumDWrnCkxp/Acg8v3K46GqhjfJ+oLFrE7ACsn+aO/5xLQlbENoxTOMPjWCZs2r5gsM1AbzlyoM6+gr0Lh8JBMQqeh3ZhjstouE0djV7dJ8ArXoCo3W7zCqEWErB/eh+89e1N3M8IhqeLAgNWX0a18bxeAhL2T0eft77FzfsZCPZ0gWLAalwu27kkYivcPQ4iRV2EGO8p6PP2T0jUMebRvZ3ufADycHnjBIz9IgSlZnk49WEfdHllKEaOfgtfRjTFC5k/Y8742dilCR7aNI/D1inj8IlPGgRRibBDn2KkQ0cMWn2h7CU/PW0yO9NwvooqpOVYwLahCLG4ACpVHgrV0J//or7rrBoJQMwKgfeCoXBQjMCqHRvw9oB+6Nt7Bvbl6Cmn5sDY6u6BgylqFMV4Y0qft/FTYkmN9qm8F6rj2O7Y4a8jzmI2AtZPg/t/ziEpKwLbxing7HEM6aKBdWpd8TXUzmpzD9Kf76Ke+5MaAEoC8e+RfdB7qld5KRhjTLdqk0eEZPpmqCnBbCTtyKq2RgclnZ6roC4LAyvm2hUELaIupq1o8i8ZJJCa7mzqT6bWzrTgWAIVE5Hq1ynU3GwAbbqjJioOpsXdetFnIZq9hYwDtG5bNJUSkZD2HQ03t6NZp8sm+gpJtGWIKVl0X0C/Zykp+pwf3cwpoZh1vcm882K6VDYNtvjSYups0Ze+KpvnLKR/T8PNrGnS4QIDxxE068oJmXRoylBaGlJ2UCGJtgw2JRPHlRRWSkQPdtNYc0NzsovI78M3aH10KeX+No1ayxvTG3vTSSAiKr1BX7w+k37LLaWoNU5kYjqStmeWnV95muYqutDCwIpoUtCiLmTaajL9kiEQFQTRkh4daMYxZdn6fDo5045MyuZkC5mHaMrQpVRZ7C002NSEHFeGkabYY8m8Yr6rsbrTofQqrehuQvL2r9HMuXNp7ty5NMttGHWyc6P/loWXiEh9ayO5L79UZS56MQXO70jyBj3o7UUf07zJQ6mz4lV6d+Vhiqw2uVubQGnfDSdzu1mkSQOBMg9NoaFLy+e5C5S0ZTCZmjjSyrBSIvUd2tTflKydF9CxhGIiUtGvU5qT2YBNdEet2T79++FkZj2JDhcYq2cjuUsFFLSkB3WYcYwqauPkTLIzKZ+TXcf4PlFZtAjpdNDVgVy+TyrLuSjaNLgxtZ5+lPJJbbjNGCwHkfrOJupvak3OC46RJsS/0pTmZjRg0x1SU812q771Jb3awIlWR5YSUSldWdaNzHuVtSMdquWo+hZ9+WoDclodSaVEVHplGXUz76Wpayqm4MXdqNdnIZr4Chl0YN02iq5xXEPbaeUDEZVGrqVXGjrT2mhNXEtv/Jt6mHWk+QGaeKhj1lFv8860uDJ4tLizBfX96k/NvGkhnb4fbkbWkw6TJsUMtElj+Sqk0XfDzclu1mnSRNNQ/hcYuM7qhKQtNMTUgrov+J2ylNF0zu8mZafrL2dB8GLq1usz0nTTAmUcWEfbokupZvvUfewcQTvOAqUfdCUHl+8pSZOgFLVpMDVuPZ2O5htaVzO+xtuZkbZjKN8L9N+fiPIp8r9baMcfqWVnZYwx3ao/yZY2QAMzKSRUiqIiPY/cyuWewI+/pMChp2PFXLsGr7piguI+Th70hQoyNGxoCZlVL7i4tIcpAEtFJ7SR5kGVS4DcDop2Sfh63CBM//IIok1cseKjrtD1XBNSC1iYSmHtPBwDm9mg63AX9GhcY6ZLDVIrKzSs+gl0bY5TGICjfqm4fXIzPD094bnhAB65rMKaaU6wqL6lERLYjv4I7l0f4vS2HxGtBvL8duDKy3Mx2lZ7WyD3xI/4JcUBPR0roolXXSdAcf8kDvqqkO+3HXsSumPIUJuy9eZob98K5bM0CgOOwi/1Nk5u9oSnpyc2HHgEl1VrMM1JR6mN1p1+sm5TsGXHDuzYsQM/HjiDwx/3qFJnAuKOxcBurDO0ZxpJzLvDbc0KjLG+h7uZJnjpzfHopmfGjG6FCDjqh9TbJ7HZ0xOenhtw4JELVq2ZBicLzZzxhpYyWPVygUt7UwCWUHRqA2meCrkEAFJYWTWsnOpjsJ6N5G6+H7bvSUD3IUNRURvt7dGqvDLqGt8nKYs2pS8O+ZnB0bml5mMq+UtYHJCD1D0TYKm9rTaD5QBkDRvCUmaFXi4u0IRYgU5tpMhT5UJHSSBTzMPeCwfgYZ+CAO8N2B2ihFj8CMa6FgCATIF5ey/ggIc9UgK8sWF3CJRiMR4ViQDksFO0Q9LX4zBo+pc4Em0C1xUfoWuNzsPQdlr5AECdmICUEinKZ63I27dHG6QhMVHnXKCapFawqtLhGGyTRvNVm6H8N3Sd1UktLGAqtYbz8IFoZtMVw116wPyC/nLK7RRol/Q1xg2aji+PRMPEdQU+0nVgPcduLNWOsxK+h/xg5uiMlpoExUuLA5CTugcTLA2tqxlf4+3MSNsxlO8G70+W6Pb2Qswd2rqyLIwxpoPWCLMRXnZSQC7cRlSU9ty26oTMZNwrFFFSUuU7S+X2aGcnRYlKiQciINGaYymRySABQSQA0raYue8sdrhaIXD9JLzcuR8WHE2uMTevQs3pmsZJJBU3zMplWv/WIj7MRs4jM3SZsATLli2r+G/pwnHorPveop+pE+a+Pwzm4T9h65lbOPRzLsbNcqoxAAUEZCbfQ6FYgurhbAc7aQlUSiWSYv+ECjLIdf5tIeJhdg4emXXBhCWVZV62bCkWjutc4w+X2tRd7cjR491p6F9+h1PH4titFzD25ZpXCACQNsHojTvxUdtrWDdzHS7rmzSqi/gQ2TmPYNZlApZUqZdlSxdiXGc5AO26lkAmkwAkVgwAJZLK+fTG6tlQ7gopsfhTBch0V0ad4/skZdEm5GThfpEKuUodK40wVg5UiR8AQCKDJsR6ziWV41H4Vsye5420nu9h3rBWkOrZtCYp5I/CsXX2PHin9cR784ahVcXOUrSduQ9nd7jCKnA9Jr3cGf0WHEVyjc7D8HZV8wEATF8dg5Et4nD+zF0IAIpvxSLJdjjGDm5YZStDJFXqylibNJ6v1RjMf1OD16mtejYZLqdp25nYd3YHXK0CsX7Sy+jcbwGO6jtwjWOXLasaZyEHWfeLoMpV1rxOQ+sArfjWrp0ZajsG8920jvcnxhjTQWuUIEcv91kYbJWJE95HNHPktJXcxulTEZC17oSO1gKir12vnGMplqC4RIoXejqile7xRyUhBVH32sB963nERp/A8h7J2O6xHufq8N3JMrlMx02JQE/QE0qtW6NVg1j47DqPyu9QEZDgewoROuZ8GiZF2ykeeLtVGn5Z4oZfbKdjSjtdgZGhdaeOsBaice165YxVsaQYJdIX0NOxNZo2bQx5URSuh2sFiESIkMK6dSs0iPXBrvNVvvlFSIDvqYga307wxHVXhaxFKzSjuzh+NBQFt/6HuHbj4KRnjA0AaDQEa3/8FF3i/oPZn/vXfKqrj9QarVs1QKzPLlS/RF+cqnvFPFE9Sxo3RWN5EaKuh6N6bRBEse7xfZKyaJO1aAs7i0z4Hj6D3PKFYg58vQ4gTjDcZuqzHACQf/pjjF+eg4nfrYWbU/OKP/Z0D6C05J/Gx+OXI2fid1jr5oTm1XYWkBJ1D23ct+J8bDROLO+B5O0eWF+j86jtdhrSZhOwZbs7zM5/g7VbNuPLoxb41HcfZtmXfUQhk0Om448b0tnh1K1NGmUw/4vrdJ3VGS5ncUoU7rVxx9bzsYg+sRw9krfDY/05rbyvA1kLtLWzQKbvYZypTFDk+HrhQHxT/eviasa4ru1Mm8F8L37y+xNjjNXohmQO78Nr2yQ0PLkQk5b9D7fzK9eJymvY++UxkGM3oNEYzJ/XHcojW+Adp3nqLWacRUBKf8z/YCDMIEIQ1CCxyk2JSDMoFEVASIHPRi/cKATM7V/H8s8nwr6BGcwlgNTcHGZ4gPS0XGSHBiGiUHNzVZdWvTXJ0NyuJUxTQ/D7jUxk3TqF7XsuIUedjZS79/GwCIAoQCTNwKdCjeNosRyBGW7tkejliiFT1uAnnyPY6zkLnwVbooMcgCBAAGmuQSdCaUkhikvKLtrKBR7v9UTJHQkGv/8vlM+QKClVAyhFcVmn3WjMfMzrrsSRLd7QhFNExtkApPSfjw8GWqDZ2KkY0zQBuz5ejpPJJUBxEm5EZUFQpiIpIw+SETPg1j4RXq5DMGXNT/A5sheesz5DsGUHaIotlMUetag7HUQ1StRUdv1VFSN212qcLemA+P/Fw36co9aTc0JJSQmotBjFZSFr8Opy7Pq8N1K/m4EPDpS9TFSDFObmZsCDdKTlZiM06A76z3BD+0QvuA6ZgjU/+eDIXk/M+iwYlh3kgChAUBPEKgNITbqVXTMAURBBJGpeJDVYz4ZzV9psLKaOaYqEXR9j+clklKAYSTeikCUokZqUgTyTOsb3CcpSQ6NRmDGpDTL2zcWbC3+Az28HsPlDd/jI+8FBZqTNyAyVAxAFAWoSqzy5JlBZWxCh3W4v4PKtBGTmJyPubj6KUgJx4nI6hMI8pIeHIqpKv1Kuao6KeXeQkJmP5Li7yC9KQeCJy0gXCpGXHo7QqDyk+GyEl6bzwOvLP8dE+wYwM9d+jioY3K5aPgCA8jSWfZGCN75Zj6UeH2P1xtWY2qt8QhAga26HlqapCPn9BjKzbuHU9j24lKNGdspd3Nd0OBBEApXVi6WhNmksX6Xm0KR/GnKzQxEUIcEIvfkvMXid2ghqVO0CDZVTkuKDjV43UAhz2L++HJ9PtEcDM3NIarTPCGi66erHRo04N8KoGZPQJmMf5r65ED/4/IYDmz+Eu48c/RwaG1gnqxFf4/2YkbZjqN1J9N+fICTjyOK34b7tWvklMsaYbtqTtDXUlHlpO80f9wopOnWnPkNH0RuTp9PsT7fTpawqr22VJtLxFePIyXEITZ79Pr03dR59HZhJAhGpIo7Q8uHNSWaioMmbT1N03EXynt+PbKQNyHHWjxR09yIt79eRer3mTp+uWkNL58whz/NlL4Wp42n3OwqybaKgCZvOUNChZfRaKxnJ7FxoxaFrdL+8CA+CaN2ItmRtbUeOEzeS/+kl5NRpME1ftZ+uJkXRiS9GUWuZnOwnrKdTt9Lohr7jaCuIof0ew8jB1oxMrdtS/zl7KKqAiB7F0smVLtRSJqN2E9bTsSitN/cKYumc9xc0pl1D6j7tP3TgUrLmhbBUb5r67k90TyAidTJdOriZpnYzJ4nUhnrP3Uq/XtX8uE9p4nFaMc6JHIdMptnvv0dT531NgeUvRpJAyivfk3ufdmRrY0/OYz+iVTP7UPu+bvTv3ZcpXSAqiNlPHsMcyNbMlKzb9qc5e6JIU+yTtNKlJclk7WjC+mMU9cBw3WlTJ/xBP656kxRmEpLa9qI3ZmpefJw7dya9O+olatz0bTqQGUarp6+u/lJbQSyd815N49rJSSJrQcOW7KATEbllL+TF0ff/akoyszY0dO46+uVG+SuEldTxu+kdhS01UUygzSEPiaiAYvZ70DAHWzIztaa2/efQnqgCIlJRxJHlNLy5jEwUk2nz6WiKu+hN8/vZkLSBI836MYj+jDpBX4xqTTK5PU1Yf4riivTXs9HcTRVIUF6h7937UDtbG7J3HksfrZpJfdr3Jbd/76bL6UKd4kv0ZGWpoSCGDngMI0UzK2pk50xumy9SRbM11GbuC3rLQaoIOrJ8ODWXmZBi8mY6HR1HF73nUz8bKTVwnEU/BqVWb7ebQygv9SjN792SrGw70qBZ28n/Z3dqZ9OBxmy8TCqtItfIUVUqHZ3fm1pa2VLHQbNou//P5N7OhjqM2UiXVcV0aXk/6tjrNXL/dBWtWTqH5niep4waodC/XX5MzXwQUg/Su+3MSAIQJBKSmpiTdfNONHjePrpVTET0gILWjaC21tZk5ziRNvqfpiVOnWjw9FW0/2oSxZz4gka1lpHcfgKtPxVHRPrapPF8TRXUFL/7HVLYNiHFhM0U8pAM5L/+66xKyLlBh5a9Rq1kMrJzWUGHrt2vyEfd5SQqvrSc+nXsRa+5f0qr1iylOXM86XzZgau2z01ngnQeW1eciQoo5oAHDVM0I6tGduTstpkuViSovnX5OuNrqJ3Vqu3oy/fiS/rvT6VXaXXvJtTO/deyMjPGmG4SIqrVp7eMMfY8E1OPY43XQ7zp7gjxvhJ5+YXIV6bh5uG9SJ/ti20janwGwRhjjOnFg2zGGBNTsfftgfjfuKs46t6kyopCXN+4Glff+hLzKn9xiTHGGDOKB9mMMSZm4thHwzDtQDGcxo5GX0VzWAh5SEnIRNPxK7H67Y41vqWHMcYYM4QH2YwxBgAoRmroSRwPiERaoQy27V7GiPH/Qvcm/ASbMcZY3fEgmzHGGGOMsXpW4yv8GGOMMcYYY0+GB9mMMcYYY4zVMx5kM8YYY4wxVs94kM0YY4wxxlg940E2Y4wxxhhj9YwH2YwxxhhjjNUzHmQzxhhjjDFWz3iQzRhjjDHGWD3jQTZjjDHGGGP1jAfZjDHGGGOM1TMeZDPGGGOMMVbPeJDNGGOMMcZYPeNBNmOMMcYYY/WMB9mMMcYYY4zVMx5kM8YYY4wxVs94kM0YY4wxxlg940E2Y4wxxhhj9YwH2YwxxhhjjNUzHmQzxhhjjDFWz3iQzRhjjDHGWD3jQTZjjDHGGGP1jAfZzKCCpDDcTCnSXvzsFCQh7GYK/sISVBAfJiAyXgVRe8XfxVONlYiHCZGIV/1tr549hr99Tj9Dz7KvE1RK5NVL0AuQFHYTz6jY/1jPc56LeUqoBO2ltVSUishbmU8YFxF5idcQdDkKGU+QhwVJEYjNfrKS/B09V4NsMT0Eh79diDcHD8CAgWPxwX/242JSefYVI/4Pb6yb9S8MHD4F//7xPOKLtQ7AqhMTsXNaX/SbvRcZWrlffHEF+nUehMV+WU/YQA0RkbhzGvr2m4292gV4loQU/LHZHb3bvwTXnbFQa6//W3h6sRJS/sBm995o/5Irdsb+Pa/+LyMmYefEzug5eSdiS7RX/o39I3L6GXpmfV0x4o9+jU0n/qwWczFpJyZ27onJO2NRlzQSE3diWt9+mL03ox7K9hz6/5DnRZE4uHI9jtypw4BGVCFs/ycY7uCAIeuC6pRz1Qh34fPpPGw4cRnH/u0CRfd3se9u3Ub8YlYIdnkMhkPnkdgY8tgl+fui5406mta9YkJyxScUVKy9kujRyVn08qyTVKC9ol4IlHXtKsWrtZf/c+Un3qDw5EdaS4vp0mJn6rviAqm01tS7/ES6EZ5M2iV45oqD6BOFGb245DLpSKsahKxrdPVZJ8JTjFVx0CekMHuRllyuzdX//yGkbqfRXd3oQOIzruv6UMec1vaX5PhT9PT7OjXdPTCL3L4K02qjAqVuH01d3Q5Q3dMonxJvhFONYrNKT5jnf5U6tS/lH/TZ+Jn0S1IttyciEpLp26FmZOv262PeMwTK+PkNav36TsohIuH+OVrz7jzyvlWHMpRRx2+k/mYtaMbxxyvJ39lz9SQbACBpiia2EkisbGCj4+qkjWzxQtMmkGuvqA8Fofh25R7cfo7+XLZs54iebcyrLxSSkfTCpzi4eiAaVV9T/yzbwbFnG2iV4NmT2cDGWqK9VI8ChH67EnuedSI8xVjJbGxQ68v/f6QwWsToPV5wayfTXvX3V6ec1vYX5fhT9LT7OiHhR3hsAt6Z10urjRYiWhyNPV5uqHsaWaKdY09oF5tV8UR5/lepY/uyGYpP3y3G2o92odYPkqXWsLJ8kriUIORcEAosrWEOQNpkOD7ftx0zXqxzEkNmZYUnKsrfmI5h6DNQlIiAPZuwatUGeP+RgELt9c9UAZIj45AjAiWZ0QgOjkGWVl6rc24j1P88Aq4m6J37JGaHYOv0d7H5SiLCf/eDf1Q2RACFyZGIzRZQlHYTV2JzodldjZzbofA/H4CrCaqyZWUKkhEZlwMRJciMDkZwTFb1j7hEFe6EBuJieDLyctKQXlC5ynA5S5AVexkBAaGIV9ZYiZKsWFwOCEBovLJ6eYpSERGj/VFkE7zavyWSr8YiS/vTHWPlLyfm4tYFP/j6+sLX1w9BcXkQATyMv4Qzvr7wC4qDZvpvEVIjYrQ+wi1EWuQlBFy4jqSHVVcYr0v9++qmzo3HlcALCEt5pL0KAFCYFolLARdwPemhJkZiNkK2Tse7m68gMfx3+PlHoWKaWWEaIi8F4ML1JFQ/dSGSI2ORLRQh7eYVxOYKAAqREnELmSIgqBJwLTgMyeV1XZKJmOAg3EzTngCnHSvj8TCcM2rkxl9B4IUw6Lp8w/tWIT7E3egEPBQFKONDcCE0Xsf2ApQJ13DxQghiaySVrvhUEtPDcdbPF75+FxGrEgEhDdfP+MLX9wxC7lb2LgXJkYjTBAPRwcGI0Q6GFn3bVz3fvVfm4f2XH+g8X2FKBG5pKhAJ14IRVlmByIwJRtDNtJrz5+uUIzASN93qnNPa9OV4YTIiY7MhFKXh5pVYlBdRf54Yy08RqjuhCLwYjuS8HKRV7+xwO9Qf5wOuIqFmMunvzwyte1p9HQAgH+c2bkK40wQMawQAItLDz8LP1xd+F+/hlXnv4+UH13HG1xe+Z0JQmUbGYgQUpUYgRnuOS0kWYi8HICA0HjW6e0GJhGsXcSFExzVpER/eRXTCQ4iCEvEhFxAar3W/MnQv05ezRupOm976MnIcg3luZF9t2mWobZ8DQ+1JX/7oa18G2xLQeNRbePnaRmzyr9JODJJComNga+gcFYqTceXM7wi5kwfhfgzO+Z5BcPzDitV6r1lHLAEAEgkqilKSgahLOvrnWtSZmBONAD9fzbjiTCgSCwGgEImhZ+Dr64eA6BztXZ66Zz/ILriCL12cMPy9T7F69VLMHOGMEWuCka+93VMnIvvKXiwc6gDFKE8c2jUHLqPdMHV0L3Sf4IV4AQAEJOyfjj5vfYub9zMQ7OkCxYDVuFzjrwIRqrQcWNg2hCgWo0ClgvJeKLwXDIWDYgRW7diAtwf0Q9/eM7AvKwH7p/fBW9/exP2MYHi6KDBg9WUUitm4snchhjooMMrzEHbNccFot6kY3as7JnjFa5KxJAJb3T1wMEWNohhvTOnzNn5KVBstp5gdgPXT3PGfc0nIitiGcQpneBxLrxgUBqyfBvf/nENSVgS2jVPA2eMY0tVKhB36FCMdOmLQ6gsVgwFVyDdwd10Kn8hkxB1fhIFdXbDGPxtibcpfldQSTcxi8cPMsRi//gZsWltCCqBBi4a4smUzrsltUHzzED4d6YCOg1bjQlkBxHQ/rJ29CF6BEbh6eBEGKAZhxblsZBqtS3375tToBDQKEblzKlxm7UJ4ajxOLPeA1+0qVyGmw2/tbCzyCkTE1cNYNECBQSvOITs3DTkWtmgoiiguUEGVVwg1RKT7rcXsRV4IjLiKw4sGQDFoBc7lqJEV4o0FQx2gGLEKOza8jQH9+uCVN97HB68p0GnwKvgc+QJTJrvjvbf6okufRfC7tg8fjHkDM+ZORJ8uA/HF5UIAIpRhVWNVD7ldGImdU10wa1c4UuNPYLmHFyov38i+FQSkXNiGWb3boavbNhxYPRIvvzoCr/XtAsWwNbiUV7aZKgTfuLtiqU8kkuOOY9HArnBZ449sUdQRn77oPWMfqnaV0sZt8ULmz5gzfjZ2xagBWWO0aR6HrVPG4ROfNJRmX8HehUPhoBgFz0O7MMdlNNymjkav7hPgVZ4cVYhGtjd6vtxr2L/oNSg6DcYqnyP4YspkuL/3Fvp26YNFftew74MxeGPGXEzs0wUDv7hc9pChLjlSFgO9cdO+onKPl9M5WscTVVo5rryHUO8FGOqgwIhVO7Dh7QHo17c3ZuzL0pMntcnPEkRsdYfHwRSoi2LgPaUP3v4pEWoAQsJ+TO/zFr69eR8ZwZ5wUQzA6srOTnd/JhpY97T7OgB4eBYH/peOl155pewpthSN276AzJ/nYPzsXdCkURs0j9uKKeM+gU9aqdEYicowHPp0JBw6DsLq8g4SIrID1mOa+39wLikLEdvGQeHsgWPpmkrUe01Vigpo5jJf2DYLvdt1hdu2A1g98mW8OuI19O2iwLA1l5AHAIKeexn0t9ssQ3WnTV99iUZywEieG95Xi54yZNoY7gMEGGhPasP5U6rdvvIKoa5Nn2vhBKcXU3H0wHnUdphdXS3OUY5KUJCnQkEpQKUFyFOp8KBIgKjvmg21vyrJV3L3F3w8aQrmzRkPx+5v4Mc7mnqrbZ1JLRqi4OznmDTGDdsTm6OZOQCYo4nsEtYtP4kCm4bauzx92vNHni6BMn4aQ1YSEFD5n8RyJP1wT9De+PEImbR9pCmZOK2hqFLtlUTFF5fQuKXlc7PUdGdTfzK1dqYFxxKomIhUv06h5mYDaNMdNZH6Fn35agNyWh1JpURUemUZdTPvRSvDdByYBEr7bjiZ282i00VlS5K20BBTC+q+4HfKUkbTOb+blBX9Jb3awIlWR5YSUSldWdaNzHutpLBSIlLfoU39TcnaeQEdSygmIhX9OqU5mQ3YRHfURMXBi6lbr88o5JHmfBkH1tG26FLD5RTS6aCrA7l8n0QCEVFpFG0a3JhaTz9K+SRQ+kFXcnD5npI0Kylq02Bq3Ho6Hc0nIiGdvh9uRtaTDmvmsCtP01xFF1oYWD5vqoCCFnUh01aT6ZcMwWj5ayqlyLWvkIXdDDpWNuFRSNtNHy7xpYeaf1H698PJzHoSHS7Q1O2hKUNpaUjZzDohibYMNiUTx5UUVmqkLg3uW16eSgVBS6hHhxl0TFm2IP8kzbQzKZvXJ1DmoSk0dGlIWR4JlLRlMJmaONLKsFIS0r6j4eZ2NKssEYTMQzRl6FKqPPUWGmxqQo4rw6iUBEraMoRMLbrTgt+zSBl9jvxuZtO974aTWYM+tCwwndREVHzjc+pl0oj6fvY73SslotIw+ryXGXXw8Keys1SP1RPldgEFLelBHWYco8rLn0l2JmVzsg3uq62Yghd3JpNWw+gLv3tUSgUU8+MbZCczJadVN6mUlHR6roK6LAysmBdYELSIupi2osm/ZJCgMz45mlyuQh2zjnqbd6bFl8qCXHyJFne2oL5f/UlqIlLf2UT9Ta3JecEx0qTmrzSluRkN2HSHdKWmse2NnU9I+46GmzWgPssCKV1TgfR5LxNq1Pcz+l1TgRT2eS8y6+BB/kWPkyMJdNJg3Gp6kpzWpp3jJCTRliGmZNF9Af2epaToc350MyvaQJ4Yyc/iYFrcrRd9punsSMg4QOu2RVMpqenWl69SA6fVpOlCr9CybubUqyxO+vszQ+uefl9XfGkRdTZ5geb4lcWLiIjUFLOuN5l3XkyVabSYOlv0pa/+VBuPEREJ6d/TcDNrmqRp9CSkHyRXBxf6XnORVBq1iQY3bk3Tj+YbvyZtxcG0uLMJtRr2BfndKyUqiKEf37AjmakTrbpZSupbBu5lOnM2i6L11p02Q/VlKAeM5bnhfaszVAZjfYCR9mQkf2q0r1r1uY/o6NSmZPLiEgouK5JhD2j3WPPKOdm1OkdVBfTzeHOycfUpe8fN0DUXG4wlZe0gF3Mr6rsikLIEInr4P5reypwGf51IQp3qjIgKAmmhwoy6LAmuuDdm7J1Kk3ck6+wXn7Zn/CRbRHpSCoqo+lIqTkHiPf0ftNWJVAKJRAKAoHUaDVEAZOWXLUPDhpaQWfWCi0t7mAKwVHRCG2keVLkEyBSYt/cCDnjYIyXAGxt2h0ApFuNRUY2/+3WSWljAVGoN5+ED0cymK4a79ECzF+dh74UD8LBPQYD3BuwOUUIsfoQiEYCsIRpaymDVywUu7U0BWELRqQ2keSrkEiC3U6Bd0tcYN2g6vjwSDRPXFfioq9xwOZW+OORnBkfnlpqPLeQvYXFADlL3TIAllPA95AczR2e01KzES4sDkJO6BxMsAUitYNWw8vOk3BM/4pcUB/R0LJ8A2ACvuk6A4v5JHPRVGS1/TXJ0nTkPrxUehZdPKkQIuH0oFC0mDYPm700prKwaVn6MVBiAo36puH1yMzw9PeG54QAeuazCmmlOsDBWlwb31ZYPv+17kNB9CIbalC0ybw/7VuVzzQoRcNQPqbdPYrOnJzw9N+DAIxesWjMNTjUPhsKAo/BLvY2Tmz3h6emJDQcewWXVGkxzsgAghYWFKaTWzhg+sBlsug6HS4+msLZsAIlpe7zs3BIyAKYKB7STA21e7g87OQC5Pdq1liBPqSzLc61YGYuHoZzJ98P2PQnoPmQoKi/fHhWXb2jfGqSwsDCHrFk/jB9uBzkaoIv7aszuRYgMDETm/RP48ZcUOPR0rJin2uBVV0xQ3MfJg75Q6YxP4zp/BCdr2BCWMiv0cnGBJjUV6NRGijxVrs5+oq7ba5M2tEQDiSnav+yMlpoKhIOmAtFfU4Gwb9cakjwllPQYOfJCEHYZjJu2+s3pGqQWsDCVwtp5OAY2s0HX4S7o0exFA3liJD/ldlC0S8LX4wZh+pdHEG3iihUfdYUcMijm7cWFAx6wTwmA94bdCFGKKH5UBNFgf2Zo3dPv69QpKUhHQzRqpOPzeb2MxAiA1MoKVYoNpe8h+Jk5wllzkZC/tBgBOanYM8HS+DVpk1rAwlyGZv3GY7idHGjQBe6rZ6MXRSIwMBMShYF7ma6c7dEML+qtO22G6stQDhjLc0P7ajNUBu1ttRlpT3XMn9r1uRLYNLICpSUi+XGGU7U6hyGGrrk2sWyAF1/tjWZSAOZt0bY5oFIqIdapzgA06A+PjwYgde/XOJIpAkISfE6Z4I2Jbep836gPz/iccjj0dkJzrXnx0qZOeLWzafWFj80CDcyloMICFOioAfFhPmBphfIiaAbklSQyGSQgiAQAUsgfhWPr7HnwTuuJ9+YNQyuprhagX40uVSrHo/CtmD3PG2k938O8Ya1QeUiJ1hwpCWQyCUAiCIC07UzsO7sDrlaBWD/pZXTutwBHkwWD5RRysnC/SIVcpY5yCznIul8EVW75QE1b+R8sACAgM/keCsUSlFSZSCq3bwc7aQlUygcQjZRfF2mrSZj3lhX8vXYhquAKfrnTDVMcK3NBUmWulvgwGzmPzNBlwhIsW7as4r+lC8ehs9xwXRrbtxohBbF/qgCZXHcDER8iO+cRzLpMwJIqx1q2dCHG1TiYiIfZOXhk1gUTllTZdtlSLBzXuewF3BpZUuNaIJFC8wFQxQJIpQBVWVQ1VuX/rqq2uS2kxEJz+Tqv3uC+tSLviJc6WQKlxSjMSMa9QhEl1ZMK7eykKFEp8UCEzvjUmVZsIJFBk5p6yl3X7bVp7w8JpBLNR3cVSyoqsO45ImTWJm5V1GtO61GjmgznicH8lLbFzH1nscPVCoHrJ+Hlzv2w4GgyBABS+SOEb52Ned5p6PnePAxrJdXE1VB/ZmgdgKfd11FpKUqp7LPbOjAYI80GVcohICfrPopUuajZ3dfmmoyTd3wJmqZbDDJ4L4OuhNBfd9qM1Jfe4xjLc0P7ajNSBoOMtqe65Y+xtqQhgYmpCSCKtarLmmpzDgMMXbNDXh1jKYNUBgjqUqAudQYAkKHDtI8x0fwUvt4RiaLo/fBvMRljGmtv92zoy8OnpuHr67BjQW80kUs0iWXrhA93fIUJ5X91PjFTtO/QBpLU24irMdFbQGLEPTTu3LZikG1Q/ml8PH45ciZ+h7VuTmhefq/RX7tG5Z/+GOOX52Did2vh5tS84ltOanNIISUK99q4Y+v5WESfWI4eydvhsf4cig2UU9aiLewsMuF7+Axyyw8k5sDX6wDi0AJt7SyQ6XsYZypXIsfXCwfitGcWytC6U0dYC9G4dr1yLpRYUowS6Qvo6djqMZOpIUbOc4cieje+XnMIeYMno4OeypFat0arBrHw2XUeyoqlAhJ8TyHCyF/uddpX0hhNG8tRFHUd4VpfPUqiCEit0bpVA8T67ML5yoNBSPDFqRoHk8K6dSs0iPXBruobw/dUhIEXpZ4yAzkjadwUjeVFiLoejuqXTxBFw/vqRVSl4y9FYZGI5l26oU2bTuhoLSD62vXKF6DFEhSXSPFCT0e0qm1SyeSQVR18lCHSzuN6Uq/nq3uOyFrXMW71mtO19Dh5Uk5IQdS9NnDfeh6x0SewvEcytnusx7nifJz+eDyW50zEd2vd4FS9s9Pfn8U31b/uGfR18pYt0FRSgIcF1S9eJpfpGFgRHiuNIEOLtnawyPTF4cqLhJjjC68D8WjxmNdEVGXIVlqIIrE5unRrjUd1vpcZqDtthuoyLk//cYzleb2VQTDcB9R3e6pVWyIUFhRC0qRFjQeZtVKrcxhg6JqjmxiOpUF1qLNyjVywcG4P3PrxK6z5/gZeencoGmhv84zoa1dPj7QVxmwOxp24EPj7X0ZcQii2jrerx4KYos/MuegvPYetX55HZkX9lSDN3xOfnu8G95Hln0+IEAQ1SKzSUIgAEiGKIsS8O0jIzEdy3F3kF6Ug8MRlpAuFyEsPR2iU9gheCnNzM+BBOtJysxEaFIFCAAQ1SivalIi8OwnIzE9G3N18FKUE4sTldAiFeUgPD0XUAwGCmiBW6XQ1xREhioCQ4oONXjdQCHPYv74cn0+0RwMzc5ChcqYMxIxJbZCxby7eXPgDfH47gM0fusNH3g8OskYYNWMS2mTsw9w3F+IHn99wYPOHcPeRo5+DTBMfkco6J6DRmPmY112JI1u8EVeiuZ6MswFI6T8fHww0A0TD5ddH7jgTcwbm4OARwtgxTaqtEwURRGV/mVuOwAy39kj0csWQKWvwk88R7PWchc+CLdFBbrguDe9b7ZSAtBnGTh2Dpgm78PHyk0guAYqTbiAqS4AyNQkZeRKMmOGG9olecB0yBWt+8sGRvZ6Y9VkwLDvIITU3hxkeID0tF9mhQbjTfwbc2ifCy3UIpqz5CT5H9sJz1mcItuxQdmMiQF1abTAliKKm7BVLCABVeXKt+f+iWNlBVYvVE+T21cxhmDqmKRJ2fYzlJ5NRgmIk3YhClqBEalIGlBn6963ZLjTE7CQklq0S047jeEQ3zPtgGMwbjcH8ed2hPLIF3pqkgphxFgEp/TH/g4EwA3TGR5usuR1amqYi5PcbyMy6hVPb9+BSjhrZKXdx/2ERREGAmsQqT6IJBNLEQutYAIxub+x8EESI5X+UVBwBoCofPZCmAiEAsBxRxxypVdyqeMKc1qad4xGazg7qys7OYI6FRj0wmJ8QUuCz0Qs3CgFz+9ex/POJsG9gBnPKw52ETOQnx+FufhFSAk/gcrqAwrx0hIemGOjPGhtY9/T7OpOer6CX+X2kVHzDDADI0NyuJUxTQ/D7jUxk3TqF7XsuIUedjZS79/GwyHAbBgCIAkSqzLNGo2ZgUpsM7Jv7Jhb+4IPfDmzGh+4+kPdzQGNj16STiOykxLIvJhCRdvw4IrrNwwfDTA3fy/JRM2dFQ3UXVeWcAGDg3tQhX/9xrmYaznNlhv5961IGB5mRPkBmuD0ZyR/t9hVeqz63EKlpSpj3cEYPE6Dw6jZMH/MO1pxJr3JNVQkQhLJzGm2vuvr1EpSUEkpKisv6UEsD19zEYCw1/WrNP1hEUYRYp7wpJ0fX2QsxpvS/+Ca6L951qtmHPTPak7SfDwLdv/QdzXmtJ3Xp1Z+GjxxBwwcPpNemfkm/J1dOlVdFHKHlw5uTzERBkzefpui4i+Q9vx/ZSBuQ46wfKSglhY7O700trWyp46BZtN3/Z3JvZ0Mdxmykyzp+mUAdv5veUdhSE8UE2nQmiA4te41ayWRk57KCDl27TwIRCalHaX7vlmRl25EGzdpO/j+7UzubDjRm41m6dGQ5DW8uIxPFZNp8OpriLnrT/H42JG3gSLN+DKK7F5dTv4696DX3T2nVmqU0Z44nnc8QiIRUw+UsiKEDHsNI0cyKGtk5k9vmi5qXC4iIqIBiDnjQMEUzsmpkR85um+lilkBE+RRz4gsa1VpGcvsJtP5UHBERlSYepxXjnMhxyGSa/f57NHXe1xSYKRCRiiKMlD/VwFsHyt9m0pg1N6u9yJAfc4K+GNWaZHJ7mrD+FMUVaa5lv8cwcrA1I1PrttR/zh6KKqhFXaYKevfVSVDSle/dqU87W7Kxd6axH62imX3aU1+3f9Puy+mauO33oGEOtmRmak1t+8+hPeUHU8fT7ncUZNtEQRM2h9BDIiqI2U8ewxzI1syUrNv2pzl7oqiABMq5cYiWvdaKZDI7cllxiK7dFyg/5jh9McqOZPIO9NaGExSZFE6/rR1HbWVy6vCGJ/3v5l265rOSXreTkbz9G+TpG0+5WrG6ds1IPIzktqC8Qt+796F2tjZk7zyWPlo1k/q070tu/95Nl1MN71tdKYV93pNMW/WhSbM+pI8/+ZDefcOV/n0iqfKFw9JEOr5iHDk5DqHJs9+n96bOo68DM0nQEx/dHlDQuhHU1tqa7Bwn0kb/07TEqRMNnr6K9vtfoCPLh1NzmQkpJm+m09FxdNF7PvWzkVIDx1n0Y1Bq9UOpImqxvYHzXQim41+MIjuZnDq8tYFORCZR+G9raVxbGck7vEGe/7tJd6/50MrX7Ugmb09vePpSfHHdcoTIUNz0eJKc1lY1xzedoaBDy+i1VjKS2bnQikPX6L6ms9ObJ2cvGcnPuxdpeb+O1Os1d/p01RpaOmcOeZ7XvAibenQ+9W5pRbYdB9Gs7f70s3s7sukwhjZqOjs9/RkZWPcM+johnXaPb0qKhReq/yDKgyBaN6ItWVvbkePEjeR/egk5dRpM01ftJ/8L/zUcoz+j6MQXo6i1TE72E9bTqTjNa14FMQfIY5iCmlk1IjtnN9p8MasiJ/Rfkw6lYfR5T1Nq1WcSzfrwY/rkw3fpDdd/04myHzzRfy+7RHd15qyxutOmr76MHMdgnqca3rcGfWUgw33A1fsG2lMt8qdE6x5ioC1VFLs4iD5RNKHxu9M17WT3G9TSpik177+myvWUe0SxJ1eSS0sZydpNoPXHogy21xqhKU2g8z/MpwFNpCRtPpSWeP2XLt9TG7hm0h9L1U3672dDNf2t6yY6GRVLF3YtoP42MrJ0mkveIWl1rLNyRRS40InG7kzV3yc+AxKq+miFMcbqlRrhK53R99hYBF9fC8e/8IECY3+lwouL0fdjc+wKWQfnf0I7UIdjpXNfHBsbjOtrHZ/OD7ixeqMOX4m+0x9hy+VNGFA+N6IkCMs/uI4vf1qgtfX/A2IydrivR7NvvfCWrfbKZ6f+ZmkwxpgBOj5FZ+z/jQYDP8fWkTew7ZeUf1hb+GeV9v8lMQvHtt/Aa1v/XTnAFnMQvPMkmrw7TWvj55uQnwtlkYj84O042+pdjP4LB9jgQTZj7OlSIzf3AYS8HCiN/LocY8+3Rhi8dgfeTvwOP1zS9yNYfyPqXOQ+EJCXowQ33b8xUYkru7YibvT3WDe4UflCKCPDIY5ZhUVD/uJR5rOkjsD6Ia3QvHlLvDg/F9M+7l/xFad/FZ4uwhh7SooRf3YP/nshEXlqOWzsh2DSjOHoUF/f1snYP1Ixkq9EAk7OaPs43wLxLBTH4+ye/+JCYh7UchvYD5mEGcM7gJvu34+QfA3XqBtebfdXDyf/DtRIOrMDB6KaYuS0SXBu9tc/R+ZBNmOMMcYYY/Xsrx/mM8YYY4wx9pzhQTZjjDHGGGP17PkcZBelIvJW5t/+xZKCpDDcTKnyG7c1iHiYEIl41eNcyZPsyxhjjDHGnsTzNcgWVQjb/wmGOzhgyLqgv/cb0WIidk7ri36z9yJDxzhYSPkDm917o/1LrtgZa+i37mp6kn0ZY4wxxtiTe74G2VIbOLp9jPEKMvSr9n8REdnXr+FO+a9gS+0x5+fLCP5xOlrqqAVZm2HwmD0YTR7jvdQn2ZcxxhhjjD05HcO7fzipNawsJdpL/3oFofh25R7crvJg2bKdI3q20f+1OzIbG1g/5qU8yb6MMcYYY+zJPH+DbEgh0TG4VOfcRqj/eQRcTYCq/GmyXiXIir2MgIBQxCurb6z/OAVIjoxDjgiUZEYjODgGWWUDajE7BFunv4vNVxIR/rsf/KOyNfPFi1IREZOhNXdcjdz4Kwi8EIaUR9VWaNbqPT+M7ssYY4wxxp6N53CQrU1Awv7p6PPWt7h5PwPBni5QDFiNy4Xa22mI2QFYP80d/zmXhKyIbRincIbHsXSIeo8jIvvKXiwc6gDFKE8c2jUHLqPdMHV0L3Sf4IV4QYQqLQcWtg0hisUoUKmQl38fYYc+xUiHjhi0+gIqXn0sjMTOqS6YtSscqfEnsNzDC7crBtL6zl+bfRljjDHG2DNFz50HtHusOdm6/UqPiIjUt+jLVxuQ0+pIKiWi0ivLqJt5L1oZVqq9I5GQTgddHcjl+yQSiIhKo2jT4MbUevpRyjd4HDXd2dSfTK2dacGxBComItWvU6i52QDadEdNRAKlfTeczO1m0emiynN9P9yMrCcdpgIiIiqgoCU9qMOMY6Qs2yT/5EyyM3mRllwuNnIdRvZljDHGGGPP1PP/JFumwLy9F3DAwx4pAd7YsDsESrEYj4p0fKWH0heH/Mzg6NxS84hf/hIWB+Qgdc8EWBo8jgwNG1pCZtULLi7tYQrAUtEJbaR5UOXqeflQagWrhlXmteT7YfueBHQfMhQ2ZYvM29ujVfnP7ho6v7F9GWOMMcbYM/X8D7IhhfxROLbOngfvtJ54b94wtJLqHvgKOVm4X6RCrlLXesPHkWhNBJfIZJCAIOo6FABAUm0fISUWf6oAmVxfleg/v/F9GWOMMcbYs/T8j8ryT+Pj8cuRM/E7rHVzQnN52XIdg19Zi7aws8iE7+EzyC1fKObA1+sA4vJqf5zHIWncFI3lRYi6Ho7iamsIomj4OozuyxhjjDHGnqnncJAtQBAAEkWIAMS8O0jIzEdy3F3kF6Ug8MRlpAuFyEsPR2hUfvVdG43CjEltkLFvLt5c+AN8fjuAzR+6w0feDx3yDR3nAQRBDRKrPLkmAkiEKIoApDA3NwMepCMtNxuhQREohAhBJFDZKFjabCymjmmKhF0fY/nJZJSgGEk3opAlKJGalAFlhv7zX80cZnDfvEIROWdXw/WddfBXVrtixhhjjDH2FDxng+wixJ3agv/eKMXDywfxzfFoSFu9hflzu+Huf4ajl8sa3H51Mka0foBzuwNBbRpq7W+D17ecwp73uyL94FLMmf8NbnT6DBtntIeJgeM8fHAO236LROn9i9j/gy9ibgfh551+iC9JxO8//YxLaSKsh0zEG62C8dmQObhk0gJJJ/+Dw9dK8ejaYXxz+jYgbYXJO4/j2zdkODKtJzq/MhFb7jRE6xc6QhrzB+IavKH3/NTOweC+tx4IUP0ZisCAUNyu+b1/jDHGGGOsnkmI+GcBGWOMMcYYq0/P2ZNsxhhjjDHG/no8yGaMMcYYY6ye8SCbMcYYY4yxesaDbMYYY4wxxuoZD7IZY4wxxhirZzzIZowxxhhjrJ7xILueFaVG4lZm5c8sFiSF4WZKUbVt/j8QHyYgMl4F/sHJuipAUkQssjlwjDHG2D/aczXIFtNDcPj/2rvzuKjq/X/gr1lkFQQtrkjghsO1NCF4mDsqKl/LlG5XKcjEBPJX4ZKaimW4knqpb1ZXyUQsyRv3ev2aC7gFqKxuyBYYIovsDgyyw5zz/v0xIDgMYEpm9X4+HvzhnPM55/35nPc47znzOed8tgx/c56ACRNfwtv/OIDzea0PX2lE9o8h2Oz9P5jo4okP9pxF9r3PIH8oouoqDrznAlvbydh8oanlxVx89cZYjPPZj5I/S9EkFODHIC+MHvwM3L/KhFp7OeuEiLKEvfBztoXdjO1IaEkhxhhjjP0+/aGKbKnlGLi/6wvH+iQklingueR1TBwoa1mqD9upb2Lly9aoG+IBfx8X2OprbeAhSM0c4LF8DhTtn+0jHQTfb+IRt2cB+vfISIsov3wJNx7nhzbKrDHVzwfO/QgP/JQjsRyXL93A49zNnieFxRgvLJs1VHvBH4pYfhmXHusEZowxxnpGj5R+jxXJE+hnLoHExAxmOnon7WOOp57oB7n2gh4gNTWBseTe14wHOmCUtcG9Lz6o2kR8tj4U1x/308MyM5iZag3EL1Cb+BnWh17/E54Fl8HExBgPPnKPu1okfrYeoY99AjPGGGMPT0cZ+gg05CI6dAcCArYh5Mcc1Gkvf6RqkZ+aBaUINJWmIy4uA2Xd1gBNKMuMR3R0IrIr252Vk0o6FkgNhUjJKNGam1yHotRYRJ+7jLzq9ks6j0UsT8DOBa8jKCkXyaciEZVWfnebdUWpiI0+h8t51V3MgRZRfTMdOdUihMpsJJxLRLZKE7tYnIzTkRGIiDyPTJUICEW4fDICEREnkXDz3qPT1b7UFdlIijmHqwX1Wkta1BUhNTYa5y7n4Z5u3yWiPGEnFrwehKTcZJyKjELa3cnJv3zM2nTWtg75qZkoFxpQdC0JmRW6z7DWFaRo5tkLKuRcisPV/NqWJU0ozYjDhWtF0My6F1GcfBqRERGIPJ8JzVBexsmICEScTMC9Q6k7hySStgxqKklDrI7+qJXXkRh1FtEXc9ByCFuIUN1IRMz5ZORXKVFU3Bqnbk1lmYiPjkZidiWEHsqD2vxUZGkOBtLj4pDRlsBI2LkArwclITf5FCKj0u7OO++p/jDGGGOPk0dfZNcmYaurI1zefB8bNqzBoulOmL4xDjXa6/3qRJQn7ceyKbZQzAzEwb2+cH3RA/NftMdIt2Bk6663IJZHY8sbXvjHmTyUpXyO2Qon+B0p7lBwQqzE1YPvY4btUEzacK6lCAPE4khs8lmB4JgUXPx+BSYoJmHdmXKUdhmLCFWREobmvSGKjahVqVBVpwbEYkRu8sGK4BikXPweKyYoMGndGSi1ghEKzuFz79EY+LQHPg/bgBnPPY/p08ZiuGIqNsZWQdrXBk+VfgPfOT7Ym6EGZH1hbZGFnZ6z8V54kWbaRpf7qkPqV/Ph6r0XyYXZOOrvh+Dr7QdQRHHkJvisCEZMykV8v2ICFJPW4Yx2oKIKRUpDmPcWITbWQqWqgqabDzJmLZvspG1JQgiWTrGFYnoAdm/7OyaMG4vRC7+Fsn04FZdwYMU0KIY5IyD8ED7yfBVeb76CscPHYEXkJXz79iy8vPAtzB0zHBM/ikcdpOhr8xRKv/HFHJ+90AylNSyydsJz9nsIL2r5UtNtDjXh5r+WY57nYvjOccDIl/e0TBESkHNgAca88hmu3S5BXKArFBM2IL5O0yZlpxf8viuAuiEDIZ5j8Pevc3X/GiCWI3rLG/D6xxnklaXg89kKOPkdQanZg+dBeWkS9i+bAlvFTAQe3Atf1xfhMf9F2I90Q3C2AFFVBKWhOXqLIhprVVBV1UHdU/1hjDHGHkf0SAlU8vUsMpGAgLY/ifEM+uctQXvlByOU0q4ZetTLcSOlNWsvJGo8v4pmr4mnRiIiUtONHeNJz9SJlh7JoUYiUv3Hkyz0J9COG2rtpkRCMX3nbkuuX+aRQETUnEY7nPvSgAWHqYaI6M4+esnAnDz+U393/S9d9Ml03vdUS5rYDnpOoTUJmr2TkEefOutRL4f1dLW5u1gEKvrChQysvOlEAxGRQKUHPWnKmoSWvgiU96kz6fVyoPVXO3a8MW4l2fWypKkfRdKtZqLajD30spWM9BwD6FozkTpjM402sKOVsS2xNcbSSjtDGvvxz6TuZl+1F1bRs0MW0pHKlp3VHKNFVr3or6s04yyUHiTPKWuordufkrNeL3JYf5U6RCoU0RcuBmTlfYI03XyIMeuyrUB5n04mPcORtPRUGVWmn6HIa0rNcW1HKPqCXPSNaMzaGCpWE1HjFfrQvhf1GbuaTt1qJqJmuvqhPekP8aOoBiIiNWVsHk0GdiupbShXkp3hWPr4Z3W3OVS225UMTMbSupgyEoio+v8WkKWBM32SKxCpf6KtzxuR44ZUaiai5qS1NMLAXnO8G+No5Qh7Wp2gyT2hJIw2f57ecXxJoOLv3MnW9UvK0wRAaTucqe+ABXS45uHyQH1jB43XMyWnpUcoR3MwyNNCnybsuEHq1rE0sCJvTQL3UH8YY4yxx9MjPpMtojivAA1aV8RRYwFyb/XQOSqppOUn904uvBMFQNbabRl69zaGzMQerq6DoQfAWDEM1tIqqCp0tK6MwMFIfTg49df8BCB/BiujlSgMdYOx9roAIDWBSe92E0jqonE4shDXjwUhMDAQgdvCUO8agI1vOMLwl8aCOkQfjkTh9WMICgxEYOA2hNW7ImDjG3A01F4XkBoawkD2JMbNcYGVHDAa7oUNPvag1BjEtLvloG5d7asGkbtCkTNyMqaYtaxuMBiDLFsvOAXqog8jsvA6jgUFIjAwENvC6uEasBFv6ApU28OMWZdtpTA01IPU1AkuE5+E2dMucH22b4efdqS9jWEk0cPg55zQXwZATwHbgXLA+jmMt5IDkGPQwAGQVFWiUtdh0nY/OWT0Vzw/+klIARjY2MACKlRWioBMgcX7zyHMbxAKokOwbV8CKsVG1DeIgNwKioF5+GT2JCzYegjpvdyx7t2ndVx7UImIg5HQd3BquRhXjmdWRkNZGAo3nUncXld5AMh694axzAT2rq4YrDkYGGYtRZWqQvd7sUf6wxhjjD2etGuKX5kctqMdYdFWfwEApE844nk7vXtffGCGMDKQgupqUaujdhSrawBjE7SG0H4OLABIZDJIQBB1VAWCsgy3G1SouK9qCgBaC34Nsbocynp9DHdbhbVr1979W7NsNuzkvywWiNUoV9ZDf7gbVrXb1to1yzDb7n5KETmGPjMMxmhGY6OuHbTT1b5si5H5swqQyTtJJhHV5UrU6w+H26p2bdeuwbLZdt0WTQ8zZt21RccZ9B1JtOfZSyCVaH6CufuKVAq0v6tMF35xDsmkkEGAuhkApJDXJ2Onz2KEFI3Cm4unwlLash2pDRZ9exq73U0Qs2UenrMbh6WH8zveoUVQoux2A1QVlboL3650lQeag3HvWElkkEkA0pnA6Jn+MMYYY48p3XXRr6j3C5uxe+lo9JNLAEggM3fEO7s/hlvrWdCHpofBQ6whKbyOrA4TvQXkptxCXzubu0X2LyH7iw2sDEsR8f1JVLS+KCoRERyGrPv49JeaDoClUSbC955F5d1XBeREHEfKLz2RLzXFAEsjZIbvxdm2jUHIicDxTjdGoHZfPJrrGiBaDMeIATJAJodMR0FPJHS9r1RTPNFXjoa0y0jWuu84iSIAKUwHWMIoMxx7722MiOMp3c6xfZgxe5i2D0MmlwEkahWxBBIeModqTmD5HH8o536BTR6OsGj9hkKa+5On3bKG186zyEw/Cv9n87HLbwvOaN8LXvYX2FgZojTie5xsCwDKiGCEZQkPngcPMqA90R/GGGPsMfXIi2xILTErKA43shIQFRWPrJxE7Jxj1YOB6GHMorcwXnoGO7eeRendwqUJRVGBeP/sCHjNaP1dXIQgqEFiu6KCCCARoqjjNHifmVg4zxol376Fvy37J8L/G4agd7wQLh8HWxkAQYAAatdWhCBSS7EJwHg6FnoMRm6wOyZ7bsTX4YewP9Abq+OMMUTeXSxSGBjoA3eKUVRRjsQLNzB+oQcG5wbDfbInNn4djkP7A+G9Og7GQzo5PyyWIy+35ZuHWIQffkjBiMVvY6oBILOwQn+9QiScuoLSsp9wfFcoYpVqlBfcxO1qGaZ3ti9bS7w0fxaeyNmL5f7HkN8ENOZdQVqZgMrCPJRU1cF4+kJ4DM5FsPtkeG78GuGH9iPQezXijId0PJMtNYCmm0WoKE/EhRvjH3zMuhxvaKo5dXPXhb4gQgShfToQAGp35pqIAFFsOcsqg4VVf+gVJuDUlVKU/XQcu0JjoVSXo+DmbVTrd5VDLXF3KNA1r4tVN5BTWoP8rJuoaShAzNF4FAt1qCpORmJKFsK3B+NKHWAw6AX4fzgXg4z0YdDhZH0fzFw4D9Yl3+Ktvy3DP8P/i7Cgd+AVLsc4W9mD58EQOURBgJrEdmeuCdTyfhABSA0MoI87KC6qQHniBSSXPFh/ROVpbHB/DZuj2lX6jDHG2ONGe5L2H4NAt2O/IN9po2i4/XhymTGdXJwn0rT5W+lUftulU6qUQ+TvYkGyXgp6NegEpWedp5Al48hMakQO3nvoQqH2ZXBEVJtBYX5TSfGkCfWxciKPoPNUJhBRfSYdW+9K/WUyGui2hY6kFVPG0Y9o5gAZyQe50ZbjWXfbH/CbSrbm+qRnakPjfUMprfb+YlFn76PXFObUT+FGQQnVRFRLGQf8aKqtOenrmZLNeF8KTavVjpiIiJqvfkij9CxpzDxvemf5e/TO6y+T+wdHKe/u9Z136MLm6WRjakpWDnNpe9QJWuU4jJwXBNCBi7e73pdQSUlfetGYgeZkNsiJXno3gBaNGUxjPT6gffHFRERUm3GA/Kbakrm+HpnajCff0DTNxaAdqCl732ukMO9HCrcg0nTzwcdMd1uBlFcO0tppliSTWZHruoN06baOY12TQT98NJOsZHIa8so2OpqaR8n/3USzbWQkH/IyBf7fNbp5KZzWv2BFMvlgejkwgrIbiejOBdo83YZMTa3IYe52ijqxihyHOdOCgAN08bYmJl05pLr2b1o9RdMf9x3HKC3zHO1dOp7MZMbk+FYIJRQV0OElo6m/iTkNneRNu6K+Ia+BZjRk1naKL4sl/3FDyX6aF70fsJHW+PpS4NmSDhdyatRSRpgfTVU8SSZ9rMjJI4jOl7Wu+YB5oEqhQ/4uZCHrRYpXg+hEehadD1lC48ykZOTgTXsuFBKps2nfawoy76cgt6AEqhYKH6g/6uwvaeZf+tOs3Tla/WKMMcYeHxJqf0qO/WGpk9fDaewRvBR3GZscOpw/ZowxxhhjPajnZmmw3wcds2AYY4wxxljP4iL7T0JdUYE7QhWUlU3aixhjjDHGWA/j6SJ/Ao3ZpxH673PIrVJDbjYIk+cthMuQnrplImOMMcYY08ZFNmOMMcYYYz2Mp4swxhhjjDHWw7jIZowxxhhjrIdxkc0YY4wxxlgP4yKbPVpiNXJSs6F6zG8lKFbnIDVb9Tu442Et8lIyUf5bB9pQiNSfStvGqzYPV68VoOHetRhjjLE/jT9UkS0WJ+D7z5bhb84TMGHiS3j7HwdwPq/1ueqNyP4xBJu9/wcTXTzxwZ6zyG7U2gD7FQko+DEIXqMH4xn3r5DZ5bPMf0NCAX4M8sLowc/A/avMrh+5/psSUZawF37OtrCbsR0Jv9WdGUUVrh54Dy62tpi8+QI0YYjI/eoNjB3ng/0lv3X1zxhjjP02/lBFttRyDNzf9YVjfRISyxTwXPI6Jg6UtSzVh+3UN7HyZWvUDfGAv48LbPW1NvC7JaL88iXcaP0+8ViSwXqqH3yc++Gxvp+NzBpT/Xzg3I/wOIcJSGExxgvLZg3VXvBoSc3g4LEccxTtx0uKQb7fID5uDxb075n/YsTyy7j0eCc4Y4wxdo+e+QR8nEieQD9zCSQmZjDT0TtpH3M89UQ//KEeLF6biM/Wh+L643vatYUMZmamkGi//LiRmcHM9LGPEoAMJibGv/14Sk1hYqwVhfFAOIyyhsG9rz6gWiR+th6hj3+CM8YYY3fpKEMfgYZcRIfuQEDANoT8mIM67eWPVC3yU7OgFIGm0nTExWWgTOuzXK28jsSos4i+mANVtyfTmlCWGY/o6ERkVwoARBQnn0ZkRAQiz2dCJQJC0WWcjIhAxMkE3Lyn83UoSo1F9LnLyKtu/zN75zGK5QnYueB1BCXlIvlUJKLSylvmxaqhvJ6IqLPRuJijQldhi9U3kZ5TDVGoRHbCOSRmt6wvFiP5dCQiIiJxPlMFEQKKLp9EREQETibcvPe41RUhNTYa5y7n4Z7QAUBdgeykGJy7WoB6rUVAN23bE1W4kRiD88n5qFIWobi2/cLOxq4O+amZKBcaUHQtCZkVnY+EuiIbSTHncLVAZ5SoK0pFbPQ5XM6r7nqudl0BUn4qhQgBqpxLiLuaj9ZQm0ozEHfhGooa8AtzQzuvNCSStuK2qSQNsTryFxBQmXMJ588lILNMe16JCNWNRMScT0Z+lRJF9w5qB01lmYiPjkZidmW7nJKiXRgtGlCYkgHt2SKdjWFtfiqyNAmO9Lg4ZLQlOBJ2LsDrQUnITT6FyKi0tvnnneVNl3nCGGOMPRqPvsiuTcJWV0e4vPk+NmxYg0XTnTB9YxxqtNf71YkoT9qPZVNsoZgZiIN7feH6ogfmv2iPkW7ByBYAQEDOgQUY88pnuHa7BHGBrlBM2ID4Tr4ViOXR2PKGF/5xJg9lKZ9jtsIJfkdKYWbzFEq/8cUcn73IUAOyvtawyNoJz9nvIbxIU6qIxZHY5LMCwTEpuPj9CkxQTMK6M+Uo7TJGEaoiJQzNe0MUG1GrUqGqTg0IOTiwYAxe+ewabpfEIdBVgQkb4jt+mREKcO5zb4we+DQ8Pg/DhhnP4fnp0zB2uAJTN8aiStoXNk+V4hvfOfDZmwE1ZOhrbYGsnZ6Y/V44NKGLKI7cBJ8VwYhJuYjvV0yAYtI6nFFqqp661K8w39Ube5MLkX3UH37B19sVZ123vUdTCnZ6+eG7AjUaMkLgOebv+DpXU4h1NnYlCSFYOsUWiukB2L3t75gwbixGL/wWSu1tow6pX82Hq/deJBdm46i/H4KvtyvGxWJEbvLBiuAYpFz8HismKDBp3Rl0CFOswKUDKzBNMQzOAeE49JEnXvV6E6+MHY4xKyJx6du3MevlhXhr7hgMn/gR4uuk6Hs/uaEzr4rbFalNuPmv5ZjnuRi+cxww8uU9bVOHVAn4Xy93rAlPRX7WD1gx8Wm4boxqKVSbkLLTC37fFUDdkIEQzzH4+9e5uuehi+WI3vIGvP5xBnllKfh8tgJOfkdQrD0GEFF59SDen2GLoZM24FzrlY+djGF5aRL2L5sCW8VMBB7cC1/XF+Ex/0XYj3RDcLYAUVUEpaE5eosiGmtVUFXVQd1V3nSRJ4wxxtgjRY+UQCVfzyITCQho+5MYz6B/3hK0V34wQintmqFHvRw3Ulqz9kKixvOraPaaeGokIiI13dgxnvRMnWjpkRxqJCLVfzzJQn8C7bihJlL/RFufNyLHDanUTETNSWtphIE9rb+qY8NCMX3nbkuuX+aRQETUnEY7nPvSgAWHqYbUlLF5NBnYraRYzY6pMXYl2RmOpY9/VhMJpXTQcwqtSWhZKOTRp8561MthPV1t7iZGEqjoCxcysPKmEw2a5uqfttLzRo60IbWZiJopae0IMrBfT7rCpsY4WmnXiyynfkSRt5qJajNoz8tWJNNzpIBrzUTqDNo82oDsVsa2jFkjxa60I8OxH5Mm9IPkOWUNtYX+KTnr9SKH9VepufYCrXp2CC08Utmysxo6tsiKev11FcU3dtO2pUWrxriVNMJ+NSXUkyaPwjbT5+nN3YydQHmfTiY9w5G09FQZVaafochrSs3xaaf2wip6dshCagvzGC2y6kV/XRVPjSRQ6UFPmrImoaX/AuV96kx6vRw6yYMi+sJFn4zGrKWYYjURNdKVD+2pV5+xtPrULU0eXf2Q7PWHkF9UA1G3udFVXhGV7XYlA5OxtC6mjAQiqv6/BWRp4Eyf5ApEVEkn3lLQ8GUxVN8SXu2FFTRcz5Je/VcJCY1xtHKEPa3WDCoJJWG0+fP0DmNPJFDxd+5k6/ol5WmCoLQdztR3wAI6XENEdIf2vWRA5h7/admPQMVfupC+6Tz6vlbz767GUH1jB43XMyWnpUcoR5Pg5GmhTxN23CA1EQlFX5CLgRV5tyR4V3lT21meMMYYY4/YIz6TLaI4rwANWleUUWMBcm/10NkmqaTlJ/ROLlwTBUDW2m0Zevc2hszEHq6ug6EHwFgxDNbSKqgqCJApsHj/OYT5DUJBdAi27UtApdiI+oYOp++AyggcjNSHg1N/zc8D8mewMlqJwlA3GGuvq60uGocjC3H9WBACAwMRuC0M9a4B2PiGIwy7i1EHmWIx9p8Lg9+gAkSHbMO+hEqIjfXQFTakhjA0kOHJcXPgYiUHjIbDa4MP7CkVMTHtbsnWibrow4gsvI5jQYEIDAzEtrB6uAZsxBuOhqiJ3IXQnJGYPMWsZW0DDB5kidZLUbtqq01upcDAvE8we9ICbD2Ujl7u6/Du0/Juxk4KQ0M9SE2d4DLxSZg97QLXZ/tq/XxTg8hdocgZORltYQ7GIMu7USL6cCQKrx9DUGAgAgO3IazeFQEb34COMAFpbxgbSaA3+Dk49ZcB0IPCdiDksMZz460gByAfNBADJFWorNR9/O5xP3ll9Fc8P/pJSAEY2NjAAipUVopAxVHs+VcBbEc53J0bbfS8O9wUt3Hsuwio5FZQDMzDJ7MnYcHWQ0jv5Y517z6t43qFSkQcjIS+gxM01zHK8czKaCgLQ+GmM7mlMDHp3W6ueNdjKOvdG8YyE9i7umKwJsExzFqKKlWFzvdwV3nTaZ4wxhhjj9gjLrLlsB3tCIvW+qWF9AlHPG+nd++LD8wQRgZSUF0tanVUiGJ1DWBscrfQaz+nFQAkMhkkIIgEAFLI65Ox02cxQopG4c3FU2Ep1fWxDwjKMtxuUKHifgonLWJ1OZT1+hjutgpr1669+7dm2WzYybuLUQepHPXJO+GzOARFo97E4qmW6CRsneRDn8EwY6C5sVFnkdNGRHW5EvX6w+G2qi3utWvXYNlsWxRn/gwVZJDrzLKu2tp1KPSkNovw7endcDeJwZZ5z8Fu3FIczhe6HTt0d1mgUIDMn1WATK77zSBWo1xZD/3hbljVbvtr1yzDbM0OtEg6zE+WSCWa32zaXoC0sy+BWn5xXsmkkEGAuhkQSvNxq05EU1O7u1XLB2GglRRNqkrcgQ0WfXsau91NELNlHp6zG4elh/M7zt8XlCi73QBVReV9xYyW99XdYehuDNuvCwASGWQSgHQmeNd5o9dJnjDGGGOPms664tfU+4XN2L10NPrJJQAkkJk74p3dH8Ot9SziQ9PD4CHWkBReR1aHid4CclNuoa+dzd0iu0s1J7B8jj+Uc7/AJg9HWLTWVDo++2V/sYGVYSkivj+JitYXRSUigsOQJQAyuQwgUaspgQRAajoAlkaZCN97FpV3lwnIiTiOlAc4wV9zYjnm+Csx94tN8HC0uFuw6gj7LqJ230ia69AgWmD4iAGQQQZN6FqtiSBACtMBljDKDMfes22RQ8hBxPFUmD7RF/KGNFxO1rohOYkQu2yb0mFesFCQhlvWXth5NhPpR/3xbP4u+G05g+aHHTtJXzzRV46GtMvoGKYISE0xwNIImeF7cW+YETh+XzvoXle50V1edUU2YBiGmgpIv3S5bT6+2ITGJimeGuUASypA2i1reO08i8z0o/B/Nh+7/LbgjPb942V/gY2VIUojvsfJtiCgjAhGWHdBQHP3kZ4bw67zprGTPNHuEmOMMfZre+RFNqSWmBUUhxtZCYiKikdWTiJ2zrHqwUD0MGbRWxgvPYOdW8+i9G4N0ISiqEC8f3YEvGa0/sYtQhDUILHdWWEiTREoihCrbiCntAb5WTdR01CAmKPxKBbqUFWcjMQ0rQq+z0wsnGeNkm/fwt+W/RPh/w1D0DteCJePg61MBgur/tArTMCpK6Uo++k4doXGQqkuR8HN26iWTcdCj8HIDXbHZM+N+Dr8EPYHemN1nDGGyLuOEZDCwEAfuFOMoopyJF5IRsmNHJTW5CPrZg0aCmJwNL4YQl0VipMToR22hojyvNyWi09FFP3wA1JGLMbbUw0AmQWs+uuhMOEUrpSW4afjuxAaq4S6vAA3b1dDNn0hPAbnIth9Mjw3fo3wQ/sR6L0acca2sHxpPmY9kYO9y/1xLL8JaMzDlbQyCJWFyCupgqTTtkM6nMkWCsKxPfgK6mCAQS/448O5g2CkbwCJcVdjB81XC3Vzh6L9LumTeGn+LDyRsxfL/Y9BE+YVpJUJqCzMQ0mVBNMXemBwbjDcJ3ti49fhOLQ/EN6r42Cs2YEWAaLYUqC3Is0xu1tEE4EgQhQAoJvc0O8qr1pyoEOB3vJ6n1lYsngkKg99ipCslsfElJxGdMF4LHl7IvSFAoRvD8aVOsBg0Avw/3AuBhnpw6DDyf8+mLlwHqxLvsVbf1uGf4b/F2FB78ArXI5xtjIAAgRB0+fWXouCCKLWfxt3OYaiIEBNYrsvcgQCad6DAKQGBtDHHRQXVaA88QJujO88bySd5QlEKE9vgPtrmxHVrjZnjDHGfjXak7T/GAS6HfsF+U4bRcPtx5PLjOnk4jyRps3fSqfy2y6CUqUcIn8XC5L1UtCrQScoPes8hSwZR2ZSI3Lw3kMXCgro8JLR1N/EnIZO8qZdUd+Q10AzGjJrO8Wr7tmhRm0GhflNJcWTJtTHyok8gs5TWetVdncu0ObpNmRqakUOc7dT1IlV5DjMmRYEHKCLtwWi2gw64DeVbM31Sc/Uhsb7hlJa7X3EWCiQOnsfvaYwp34KNwpKqCah8DAtGd2fTMyH0iTvXRT1jRcNNBtCs7bHU4ewm6/Sh6P0yHLMPPJ+Zzm9987r9LL7B3Q0T313lTsXNtN0G1MytXKguduj6MQqRxrmvIACDlwkTegHyG+qLZnr65GpzXjyDU2jWiIiEqgy6UvyGjOQzM0GkdNL71LAojE0eKwHfbAvnoq7bHuvxlh/GjfUnqZ5vU8BG9eQr28gnS1pGVydYyeQ8spBWjvNkmQyK3Jdd5Au3da+5LGFUElJX3rRmIHmZDbIiV56N4AWjRlMYz0+oH3xxURUSxkH/GiqrTnp65mSzXhfCk3TFWUNZfzwEc20kpF8yCu07Wgq5SX/lzbNtiGZfAi9HPh/dO3mJQpf/wJZyeQ0+OVAishuvK/c0JVXqmv/ptVTNLnhvuMYpWWeo71Lx5OZzJgc3wqhhBKBqDmXflg3mxwdJtOrPv+P3py/mD6JKdVcRNkYS/7jhpL9NC96P2AjrfH1pcCzJR0uDNWopYwwP5qqeJJM+liRk0cQnS8TiKieMo+tJ9f+MpINdKMtR9KoJuMofTRzAMnkg8hty3HKamhpr2sMVSl0yN+FLGS9SPFqEJ1Iz6LzIUtonJmUjBy8ac+FQiJ1Nu17TUHm/RTkFpRA1dR53nSeJ2rK/nIm/aX/LNqd05bbjDHG2K9FQvRYP3+P/drUyVjvNBZHXorD5U0OHc4gM8YYY4yxX67nZmmw3zkdV4kyxhhjjLEHwkX2n526AhV3BFQpK6H9LEDGGGOMMfZgeLrIn1ljNk6H/hvncquglpth0OR5WOgyBD11M0XGGGOMsT8rLrIZY4wxxhjrYTxdhDHGGGOMsR7GRTZjjDHGGGM9jIts9lAaClPxU+nv484kYnUOUrNVfB8V9gAaUJj6E34nqc4YY+wx8IcqssXiBHz/2TL8zXkCJkx8CW//4wDO57U+8rER2T+GYLP3/2Ciiyc+2HMW2fys5fvTeB7rxtlh0spIlLUUGaLqKg685wJb28nYfOExvy+JUIAfg7wwevAzcP8qs/OnPzLWgQjV1QN4z8UWtpM343FPdcYYY4+PP1SRLbUcA/d3feFYn4TEMgU8l7yOiQNlLUv1YTv1Tax82Rp1Qzzg7+MCW32tDfxuiSi/fAk37j5Cvmc1Xf4BpzAXWz78H1i0ZIzUzAEey+dA8Xu4blZmjal+PnDu1+7R5o+CWI7Ll27gVzos7JGQwszBA8vnKPB7SHXGGGOPjz9UkQ0AkDyBfuYSSEzMYKajd9I+5njqiX5/rCcb1ibis/WhuP6rnKIVkJ/3FN7/bgMm9rl3idTUBMaSe197bMnMYGb6aIOtTfwM60Ov85nz3z0pTE2M8WizhzHG2O+djjL0EWjIRXToDgQEbEPIjzmo017+SNUiPzULShFoKk1HXFwGyrSqIrXyOhKjziL6Yg5U3Z6WbEJZZjyioxORXSkAEFGcfBqRERGIPJ8JlQgIRZdxMiICEScTcPOeztehKDUW0ecuI6+6/eTPzmMUyxOwc8HrCErKRfKpSESllbfMOVZDeT0RUWejcTFH1fXZVFGFG4kxOJ+cjyplEYpr713c7/nx6J9/EZllWr+VSyU6Cw+hMgeXzp9DQmZZNw+4EVF9Mx051SKEymwknEtEdssAi8XJOB0ZgYjI88jUDBoun4xARMRJJNw7aKgrSkVs9DlczqvuMN9aXZGNpJhzuFpQr7VEo6u22jpbV1TdQGLMeSTnV0FZVIxaiChP2IkFrwchKTcZpyKjkFbe0kKtxPXEKJyNvogcrWSqy09FZrmAhqJrSMqs6PyY1RUhNTYa5y7n4d40yUdqlhIimlCaHoe4jDLdBb5YjOTTkYiIiMT5TBVECCi6fBIRERE4mXCz7f3Y7fYeIseq7zMG4CHeU3XIT81EudCAomtJyKxoya0Ox6tV5/2RSnRlOmOMMda5R19k1yZhq6sjXN58Hxs2rMGi6U6YvjEONdrr/epElCftx7IptlDMDMTBvb5wfdED81+0x0i3YGQLACAg58ACjHnlM1y7XYK4QFcoJmxAfCffCsTyaGx5wwv/OJOHspTPMVvhBL8jpTCzeQql3/hijs9eZKgBWV9rWGTthOfs9xBe1FpURmKTzwoEx6Tg4vcrMEExCevOlKO0yxhFqIqUMDTvDVFsRK1Khao6NSDk4MCCMXjls2u4XRKHQFcFJmyI1/1lpikFO7388F2BGg0ZIfAc83d8ndtSSqkS8L9e7lgTnor8rB+wYuLTcN0YhdZ6sSMVEv7XC+5rwpGan4UfVkzE064bEaWjgVBwDp97j8bApz3wedgGzHjueUyfNhbDFVOxMbYK0r42eKr0G/jO8cFezaDB2iILOz1n473wIk0BJBYjcpMPVgTHIOXi91gxQYFJ685AKQJAHVK/mg9X771ILszGUX8/BF9vVzZ12VZLF+s2peyEl993KFA3ICPEE2P+/jVym1QoUhrCvLcIsbEWKlUVNIflABaMeQWfXbuNkrhAuComYEN8HcSyBIQsnQJbxXQE7N6Gv08Yh7GjF+JbZYdAUBy5CT4rghGTchHfr5gAxaR1OFNeiqT9yzDFVoGZgQex19cVL3rMx4v2I+EWnN2x+JX2hc1TpfjGdw589mZADRn6Wlsga6cnZr8XjqLm8u6397A5lm/adQwtQT/Ye6oZZQkhWDrFForpAdi97e+YMG4sRi/8FsW6jpf6F/aHMcYYux/0SAlU8vUsMpGAgLY/ifEM+uctQXvlByOU0q4ZetTLcSOlNWsvJGo8v4pmr4mnRiIiUtONHeNJz9SJlh7JoUYiUv3Hkyz0J9COG2oi9U+09XkjctyQSs1E1Jy0lkYY2NP6qzo2LBTTd+625PplHglERM1ptMO5Lw1YcJhqSE0Zm0eTgd1KitXsmBpjV5Kd4Vj6+Gc1kVBKBz2n0JqEloVCHn3qrEe9HNbT1eZuYiSBir5wIQMrbzrRoGmu/mkrPW/kSBtSm4momZLWjiAD+/WkK+zGuJU0wn41JdST5viEbabP05uJqJJOvKWg4ctiqL5l3doLK2i4niW9+q8STR/v7KOXDMzJ4z+aNSpPvEWK4csopq0BrRiuR5av/otKdBzexriVZNfLkqZ+FEm3molqM/bQy1Yy0nMMoGvNROqMzTTawI5Wtg0arbQzpLEf/0xqEqj0oCdNWZPQciwFyvvUmfR6OdD6q81Ue2EVPTtkIR2pbNlZzTFaZNWL/roqnhq7aXuvrtatpbiVI8h+dYJmjIQSCtv8OaU3E5FQRF+4GJCV9wnSHBY1/bT1eTJy3ECaw5JEa0cYkP36q9RMRELepzRZz5BGLj1FZZXpdCbyGim1xkwoPUieU9ZQW5p8Ss56vchh/VVqVt+gHeP1yNRpKR3JaSQiFf3H04L0J+ygG+p7t0NEROoM2jzagOxWxrb0q5FiV9qR4diP6Wc1EXWzvR7Jse5ieJj3FAmU9+lk0jMcSUtPlVFl+hmKvFZMFzo5Xt31586+l8jA3INaUp0xxhjr1iM+ky2iOK8ADVoXEFFjAXJv6fxh+5eTSiCRSAB0cpGbKACy1m7L0Lu3MWQm9nB1HQw9AMaKYbCWVkFVQYBMgcX7zyHMbxAKokOwbV8CKsVG1DfoON1ZGYGDkfpwcOqv+XlA/gxWRitRGOoGY+11tdVF43BkIa4fC0JgYCACt4Wh3jUAG99whGF3MeogUyzG/nNh8BtUgOiQbdiXUAmxsR66wpZbKTAw7xPMnrQAWw+lo5f7Orz7tByoOIo9/yqA7SgHGLSsa/S8O9wUt3HsuwiotLYDVODonn+hwHYUHNoawN1NgdvHvkNExwaQGhrCQPYkxs1xgZUcMBruhQ0+9qDUGMR0e6+0OkQfjkTh9WMICgxEYOA2hNW7ImDjG3A0rEHkrlDkjJyMKWYtqxsMxiDL1otgu2rbbhfdriuHlWIg8j6ZjUkLtuJQei+4r3sXT+uc8C+DYvF+nAvzw6CCaIRs24eEShGN9Q0QW8ZCT2oKJ5eJeNLsabi4Pou+Wu/OuujDiCy8jmNBgQgMDMS2sHq4BmzEG46GgKw3ehvLYGLvCtfBegCMoRhmDWmVCp2kSde62V6P5Fh3HuY9BSkMDfUgNXWCy8QnYfa0C1yftYB1J8frl/SHMcYYux+PuMiWw3a0Iyxaa50W0icc8byd3r0vPjBDGBlIQXW1qNXxASlW1wDGJmgNQVOQt5HIZJCAIBIASCGvT8ZOn8UIKRqFNxdPhaVUd8UiKMtwu0GFikrdy7siVpdDWa+P4W6rsHbt2rt/a5bNhp28uxh1kMpRn7wTPotDUDTqTSyeaolOwobUZhG+Pb0b7iYx2DLvOdiNW4rD+QKE0nzcqhPR1NTQtrJ8EAZaSdGkqsQd7bEVSpF/qw5iUxPaWsgxaKAVpE0qVHZooIscQ58ZBmM0o7Gxk4BbidUoV9ZDf7gbVrUbs7VrlmG2bTEyf1YBMrnuBO+qrZ1W8dflunqwWfQtTu92h0nMFsx7zg7jlh5Gfof5GRpSeT2Sd/pgcUgRRr25GFMtpfd8Eex61q+I6nIl6vWHw21VuzjWrsGy2XaQQ4J700QCmUwCkKj7y2a3utleD+RYdx7mPaWhPaLSzo/XL+gPY4wxdj901iC/pt4vbMbupaPRTy7RfHCbO+Kd3R/DrfWM40PTw+Ah1pAUXkdWh4neAnJTbqGvnc3dIrtLNSewfI4/lHO/wCYPR1i01l86Pnxlf7GBlWEpIr4/iYrWF0UlIoLDkCUAMrlMR8FDIAGQmg6ApVEmwveeReXdZQJyIo4j5QFO8NecWI45/krM/WITPBwt7t5JRUfYEArScMvaCzvPZiL9qD+ezd8Fvy1noB4wDENNBaRfutw2L1VsQmOTFE+NcoCldubIBmDYUFMI6Zdwua0BmhqbIH1qFBw6NGhFoHb1d3NdA0SL4RgxQAbI5JDp+DJBmkHDAEsjZIbvxdm2QYOQE4HjqaZ4oq8cDWmXkax1L3QSxa7bag94l+s2oiDtFqy9duJsZjqO+j+L/F1+2HJG1w3Ya3Bi+Rz4K+fii00ecOwqmXSSwnSAJYwyw7H33kAQcTxF9wWOXZJBk5IdBrfjHG4deiLHGruJ4WHeU7oJnR6vX9Ifxhhj7H50Vvn8eqSWmBUUhxtZCYiKikdWTiJ2zrHqwUD0MGbRWxgvPYOdW8+i9O4HbhOKogLx/tkR8JrR+mOzCEFQg8R2hRwRQCJEUYRYdQM5pTXIz7qJmoYCxByNR7FQh6riZCSmaVXwfWZi4TxrlHz7Fv627J8I/28Ygt7xQrh8HGxlMlhY9YdeYQJOXSlF2U/HsSs0Fkp1OQpu3ka1bDoWegxGbrA7JntuxNfhh7A/0Bur44wxRN51jIAUBgb6wJ1iFFWUI/FCMkpu5KC0Jh9ZN2vQUBCDo/HFEOqqUJycCO2whYJwbA++gjoYYNAL/vhw7iAY6RtA0mcWliweicpDnyIkS3OPELHkNKILxmPJ2xOhDwCCAAHUEkcfzFqyGCMrD+HTkCzNXUXEEpyOLsD4JW9jYmf3JBfLkZfbEpRYhB9+SMGIxW9jqgEgs7BCf71CJJy6gtKyn3B8VyhilWqUF9zE7WoZpi/0wODcYLhP9sTGr8NxaH8gvFfHwdjWEi/Nn4UncvZiuf8x5DcBjXlXkFYmoLIwDyVVks7bDtGexmDcxboSFIRvR/CVOsBgEF7w/xBzBxlB30ACSA2gOSxFqChPxIXkEtzIKUVNfhZu1jSgIOYo4osF1FUVIzkxDQBAUKO5i2rZePpCeAzORbD7ZHhu/Brhh/Yj0Hs14oyHQC4KENQEsV3RqUkTEaKuHxFkFrDqr4fChFO4UlqGn47vQmisEuryAty8XY2GLrcnoqoncqy7GB7mPdUATYmsbm73BUTo5HhRt/0RBKHlPQcAIpSnN8D9tc2Iavd9hzHGGLuH9iTtPwaBbsd+Qb7TRtFw+/HkMmM6uThPpGnzt9Kp/LYrs1Qph8jfxYJkvRT0atAJSs86TyFLxpGZ1IgcvPfQhYICOrxkNPU3Maehk7xpV9Q35DXQjIbM2k7xqnt2qFGbQWF+U0nxpAn1sXIij6DzVNZ68dqdC7R5ug2ZmlqRw9ztFHViFTkOc6YFAQfo4m2BqDaDDvhNJVtzfdIztaHxvqGUVnsfMRYKpM7eR68pzKmfwo2CEqpJKDxMS0b3JxPzoTTJexdFfeNFA82G0Kzt8aQddmOsP40bak/TvN6ngI1ryNc3kM62XqXYnEs/rJtNjg6T6VWf/0dvzl9Mn8SUai5Cq8+kY+tdqb9MRgPdttCRtDtE1Ey5P6yj2Y4ONPlVH/p/b86nxZ/EUKmOix6JiJqvfkij9CxpzDxvemf5e/TO6y+T+wdHKe/uhXp36MLm6WRjakpWDnNpe9QJWuU4jJwXBNCBi7eJqJYyDvjRVFtz0tczJZvxvhSaVqtpKlRS0pdeNGagOZkNcqKX3g2gRWMG01iPD2hffHHXbTvobN1GivUfR0Ptp5HX+wG0cY0v+QaebbnIU03Z+14jhXk/UrgFUUK1QIWHl9Do/iZkPnQSee+Kom+8BpLZkFn0cWQMHVw7jSxlMrJyXUcHL93WjLEOtRkHyG+qLZnr65GpzXjyDU2jWlJRyiF/crGQUS/FqxR0Ip2yzofQknFmJDVyIO89F6hQxwbvXNhM021MydTKgeZuj6ITqxxpmPMCCjgQRef+3fX2Cgp6Jsc6j+Ei3RYe9D31DZ35MYzWTrMkmcyKXNcdpEu3hS6PV1fvmZLMY7TetT/JZAPJbcsRSrujpuwvZ9Jf+s+i3Tm6ripljDHGiCRE/Bwz9ttQJ6+H09gjeCnuMjY5aJ9BZowxxhj7/eq5WRqMPShd0xkYY4wxxn7HuMhmvxl1RQXuCFVQVnb9XEjGGGOMsd8bni7CfhON2acR+u9zyK1SQ242CJPnLYTLkJ66jSNjjDHG2G+Li2zGGGOMMcZ6GE8XYYwxxhhjrIdxkc0YY4wxxlgP4yKbMcYYY4yxHsZFNmOMMcYYYz2Mi2zGGGOMMcZ6GBfZjDHGGGOM9TAushljjDHGGOthXGQzxhhjjDHWw7jIZowxxhhjrIdxkc0YY4wxxlgP4yKbMcYYY4yxHsZFNmOMMcYYYz2Mi2zGGGOMMcZ6GBfZjDHGGGOM9TAushljjDHGGOthXGQzxhhjjDHWw7jIZowxxhhjrIdxkc0YY4wxxlgP4yKbMcYYY4yxHsZFNmOMMcYYYz2Mi2z2UMTqHKRmqyBqL2CMMcYY+xP7/6IQMRlc2gP9AAAAAElFTkSuQmCC;" vertex="1" parent="1">
          <mxGeometry x="624.5" y="-10" width="729" height="252" as="geometry" />
        </mxCell>
      </root>
    </mxGraphModel>
  </diagram>
</mxfile>
